<svg width="24" height="24" viewBox="0 0 24 24" fill="none" xmlns="http://www.w3.org/2000/svg">
<path d="M3.57185 15.8578C6.67974 18.9657 11.5562 19.2266 14.9612 16.6406L21.2495 22.9289C21.7132 23.3926 22.4651 23.3926 22.9289 22.9289C23.3926 22.4651 23.3926 21.7132 22.9289 21.2495L16.6406 14.9612C19.2265 11.5562 18.9657 6.67974 15.8578 3.57185C12.4652 0.179174 6.96453 0.179173 3.57185 3.57185C0.179174 6.96453 0.179174 12.4652 3.57185 15.8578ZM5.25123 14.1785C2.78605 11.7133 2.78605 7.71642 5.25123 5.25123C7.71642 2.78605 11.7133 2.78605 14.1785 5.25123C16.6418 7.71461 16.6436 11.7074 14.1839 14.173L14.1785 14.1784L14.1784 14.1785L14.173 14.1839C14.173 14.1839 14.1729 14.184 14.1728 14.1841C11.7072 16.6436 7.71454 16.6418 5.25123 14.1785Z" fill="#30538D" stroke="#30538D" stroke-width="0.5" stroke-linecap="round"/>
</svg>
