<svg width="45" height="31" viewBox="0 0 45 31" fill="none" xmlns="http://www.w3.org/2000/svg">
<path d="M2.83333 30.25H12.6667C14.0187 30.25 15.125 29.1437 15.125 27.7917C15.125 26.4396 14.0187 25.3333 12.6667 25.3333H2.83333C1.48125 25.3333 0.375 26.4396 0.375 27.7917C0.375 29.1437 1.48125 30.25 2.83333 30.25ZM0.375 3.20833C0.375 4.56042 1.48125 5.66667 2.83333 5.66667H42.1667C43.5187 5.66667 44.625 4.56042 44.625 3.20833C44.625 1.85625 43.5187 0.75 42.1667 0.75H2.83333C1.48125 0.75 0.375 1.85625 0.375 3.20833ZM2.83333 17.9583H27.4167C28.7687 17.9583 29.875 16.8521 29.875 15.5C29.875 14.1479 28.7687 13.0417 27.4167 13.0417H2.83333C1.48125 13.0417 0.375 14.1479 0.375 15.5C0.375 16.8521 1.48125 17.9583 2.83333 17.9583Z" fill="white"/>
</svg>
