<svg width="33" height="33" viewBox="0 0 33 33" fill="none" xmlns="http://www.w3.org/2000/svg">
<path d="M31.4625 1.56219C30.5362 0.635938 29.04 0.635938 28.1137 1.56219L16.5 13.1522L4.88621 1.53844C3.95996 0.612188 2.46371 0.612188 1.53746 1.53844C0.611211 2.46469 0.611211 3.96094 1.53746 4.88719L13.1512 16.5009L1.53746 28.1147C0.611211 29.0409 0.611211 30.5372 1.53746 31.4634C2.46371 32.3897 3.95996 32.3897 4.88621 31.4634L16.5 19.8497L28.1137 31.4634C29.04 32.3897 30.5362 32.3897 31.4625 31.4634C32.3887 30.5372 32.3887 29.0409 31.4625 28.1147L19.8487 16.5009L31.4625 4.88719C32.365 3.98469 32.365 2.46469 31.4625 1.56219Z" fill="white"/>
</svg>
