<svg width="20" height="20" viewBox="0 0 20 20" fill="none" xmlns="http://www.w3.org/2000/svg">
<path d="M16.8377 20C15.9686 20 15.2242 19.7208 14.6047 19.1625C13.9852 18.6042 13.6755 17.9333 13.6755 17.15C13.6755 17.0333 13.6893 16.8958 13.7171 16.7375C13.7448 16.5792 13.7864 16.4333 13.8419 16.3L5.43689 11.9C5.1595 12.1833 4.81738 12.4125 4.41054 12.5875C4.0037 12.7625 3.58761 12.85 3.16227 12.85C2.29311 12.85 1.54877 12.5708 0.929265 12.0125C0.309755 11.4542 0 10.7833 0 10C0 9.2 0.309755 8.525 0.929265 7.975C1.54877 7.425 2.29311 7.15 3.16227 7.15C3.58761 7.15 3.99445 7.225 4.3828 7.375C4.77115 7.525 5.12252 7.74167 5.43689 8.025L13.8419 3.675C13.7864 3.55833 13.7448 3.425 13.7171 3.275C13.6893 3.125 13.6755 2.98333 13.6755 2.85C13.6755 2.05 13.9852 1.375 14.6047 0.825C15.2242 0.275 15.9686 0 16.8377 0C17.7254 0 18.4743 0.275 19.0846 0.825C19.6949 1.375 20 2.05 20 2.85C20 3.63333 19.6949 4.30417 19.0846 4.8625C18.4743 5.42083 17.7254 5.7 16.8377 5.7C16.4124 5.7 16.0009 5.6375 15.6033 5.5125C15.2057 5.3875 14.8682 5.18333 14.5908 4.9L6.18585 9.1C6.22284 9.23333 6.2552 9.3875 6.28294 9.5625C6.31068 9.7375 6.32455 9.88333 6.32455 10C6.32455 10.1167 6.31068 10.2417 6.28294 10.375C6.2552 10.5083 6.22284 10.6417 6.18585 10.775L14.5908 15.075C14.8682 14.8417 15.1919 14.6542 15.5617 14.5125C15.9316 14.3708 16.3569 14.3 16.8377 14.3C17.7254 14.3 18.4743 14.575 19.0846 15.125C19.6949 15.675 20 16.35 20 17.15C20 17.9333 19.6949 18.6042 19.0846 19.1625C18.4743 19.7208 17.7254 20 16.8377 20ZM16.8377 4.2C17.2631 4.2 17.619 4.07083 17.9057 3.8125C18.1923 3.55417 18.3356 3.23333 18.3356 2.85C18.3356 2.46667 18.1923 2.14583 17.9057 1.8875C17.619 1.62917 17.2631 1.5 16.8377 1.5C16.4124 1.5 16.0564 1.62917 15.7698 1.8875C15.4831 2.14583 15.3398 2.46667 15.3398 2.85C15.3398 3.23333 15.4831 3.55417 15.7698 3.8125C16.0564 4.07083 16.4124 4.2 16.8377 4.2ZM3.16227 11.35C3.58761 11.35 3.9436 11.2208 4.23024 10.9625C4.51687 10.7042 4.66019 10.3833 4.66019 10C4.66019 9.61667 4.51687 9.29583 4.23024 9.0375C3.9436 8.77917 3.58761 8.65 3.16227 8.65C2.73694 8.65 2.38095 8.77917 2.09431 9.0375C1.80767 9.29583 1.66436 9.61667 1.66436 10C1.66436 10.3833 1.80767 10.7042 2.09431 10.9625C2.38095 11.2208 2.73694 11.35 3.16227 11.35ZM16.8377 18.5C17.2631 18.5 17.619 18.3708 17.9057 18.1125C18.1923 17.8542 18.3356 17.5333 18.3356 17.15C18.3356 16.7667 18.1923 16.4458 17.9057 16.1875C17.619 15.9292 17.2631 15.8 16.8377 15.8C16.4124 15.8 16.0564 15.9292 15.7698 16.1875C15.4831 16.4458 15.3398 16.7667 15.3398 17.15C15.3398 17.5333 15.4831 17.8542 15.7698 18.1125C16.0564 18.3708 16.4124 18.5 16.8377 18.5Z" fill="white"/>
</svg>
