<?xml version="1.0" encoding="utf-8"?><svg version="1.1" id="Layer_1" xmlns="http://www.w3.org/2000/svg" xmlns:xlink="http://www.w3.org/1999/xlink" x="0px" y="0px" viewBox="0 0 122.88 84.93" style="enable-background:new 0 0 122.88 84.93" xml:space="preserve"><g><path d="M79.13,52.91c1.6-0.3,3.23-0.26,4.78,0.08c6.37,1.42,10.25,7.58,8.48,13.92c-0.58,2.07-1.72,4.02-3.33,5.63 c3.52-0.95,6.58-2.24,10.7-4.87c7.2-4.59,12.06-10.49,14.75-16.8c2.06-4.85,2.85-9.95,2.43-14.92c-0.41-4.97-2.02-9.79-4.74-14.05 c-3.4-5.34-8.56-9.83-15.33-12.71c-3.9-1.66-8.71-2.67-13.66-3.11C77.72,5.59,72.08,5.8,67.31,6.6c-2.45,0.41-4.49,1.3-5.95,2.63 c-1.28,1.18-2.14,2.76-2.4,4.73c-0.96,7.19,0,14.78-0.52,22.04c-0.23,3.16-0.39,5.48,2.9,5.85c1.2,0.13,2.3,0.08,3.29-0.14 c2.21-0.47,3.96-1.77,5.24-3.51c1.37-1.88,2.21-4.29,2.49-6.8c0.19-1.7,0.12-3.44-0.21-5.08c-0.42-1.52,0.46-3.1,1.98-3.56 C81,20.7,75.27,36.05,88.08,36.41c0.37,0.01,0.74,0.02,0.98,0.03c1.61,0.05,2.87,1.4,2.82,3c-0.05,1.61-1.39,2.87-3,2.82 c-0.43-0.01-0.7-0.02-0.96-0.03c-5.63-0.16-8.61-0.24-11.25-4.39c-0.56,1.35-1.26,2.63-2.11,3.8c-0.35,0.48-0.72,0.92-1.12,1.32 c1.47,0.81,2.77,1.94,3.76,3.37c0.09,0.12,0.17,0.25,0.26,0.38C78.69,48.64,79.22,50.78,79.13,52.91L79.13,52.91z M79.9,78.93 l-5.85,3.89c-4.54,3.01-9.23,2.52-12.71,0.21C60,82.15,58.86,81,57.98,79.68c-0.89-1.33-1.51-2.84-1.79-4.43 c-0.12-0.67-0.18-1.35-0.17-2.04c-1.22,0.15-2.45,0.1-3.63-0.14c-2.8-0.56-5.38-2.14-7.07-4.57c-0.09-0.13-0.17-0.25-0.26-0.38 c-1.68-2.64-2.05-5.69-1.33-8.54c0.16-0.61,0.36-1.21,0.62-1.8c-2.03,0.44-4.08,0.39-5.99-0.11C35.29,56.86,32.6,54.92,31,52 c-1.61-2.94-1.79-6.28-0.81-9.3c0.97-2.96,3.08-5.63,6.09-7.28c6.22-3.4,7.06-3.76,7.89-4.12c0.62-0.27,1.24-0.53,4.94-2.53 l-36.53-0.04v0.01l0,0v-0.01c-3.44,0-6.56-1.33-8.83-3.47c-5.01-4.72-5.01-12.39,0.01-17.11C6.05,6.02,9.17,4.7,12.61,4.7V4.69l0,0 V4.7l42.63,0.04l0-0.01c0.67,0,1.29,0.23,1.79,0.61c0.14-0.14,0.28-0.27,0.42-0.4c2.31-2.12,5.38-3.49,8.91-4.09 c5.19-0.87,11.35-1.11,17.36-0.57c5.54,0.49,10.97,1.64,15.43,3.54c7.89,3.36,13.94,8.65,17.95,14.95 c3.25,5.09,5.16,10.81,5.65,16.69c0.49,5.88-0.44,11.94-2.89,17.69c-3.12,7.34-8.72,14.15-16.98,19.42 c-7.6,4.85-11.82,5.67-20.06,7.27l-0.17,0.04C81.59,80.09,80.56,79.69,79.9,78.93L79.9,78.93z M75.6,60.87 c-0.58,0.6-1.24,1.16-1.95,1.66l-11.07,7.72c-0.88,1.33-1.12,2.74-0.89,4.03c0.15,0.82,0.47,1.61,0.94,2.31 c0.47,0.7,1.08,1.32,1.78,1.79c1.75,1.16,4.16,1.38,6.55-0.21l12.94-8.6c1.58-1.05,2.66-2.54,3.11-4.15 c0.9-3.24-1.06-6.27-4.31-6.99c-1.49-0.33-3.11-0.12-4.53,0.73c-0.11,0.07-0.18,0.12-0.22,0.14L75.6,60.87L75.6,60.87z M61.93,63.25l10.02-6.66c0.69-0.82,1.17-1.75,1.41-2.72c0.36-1.42,0.2-2.91-0.61-4.17c-0.04-0.06-0.08-0.12-0.12-0.19 c-0.84-1.2-2.14-1.99-3.58-2.28c-1.45-0.29-3.02-0.06-4.36,0.79c-0.07,0.05-0.14,0.09-0.21,0.14l-12.44,8.68 c-1.5,1.05-2.51,2.53-2.91,4.09c-0.36,1.42-0.2,2.92,0.61,4.17c0.04,0.07,0.08,0.13,0.12,0.19c0.84,1.2,2.14,1.99,3.58,2.28 c1.45,0.29,3.02,0.06,4.36-0.79c0.07-0.05,0.14-0.09,0.21-0.14l0.53-0.37C59.43,65.2,60.54,64.17,61.93,63.25L61.93,63.25z M35.74,44.5c-0.51,1.56-0.42,3.25,0.37,4.71c0.79,1.44,2.14,2.4,3.7,2.81c1.67,0.43,3.55,0.24,5.27-0.65l9.96-5.21 c-1.33-0.99-2.44-2.22-3.3-3.71c-1.18-2.03-1.86-4.49-1.98-7.43c-2.17,1.15-2.74,1.4-3.3,1.63c-0.74,0.31-1.47,0.63-7.39,3.87 C37.42,41.43,36.26,42.88,35.74,44.5L35.74,44.5z M7.75,21.02c1.24,1.17,2.95,1.89,4.84,1.9V22.9l0,0v0.01l39.72,0.04l0.01-12.4 l-39.72-0.04v0.01l0,0v-0.01c-1.89,0-3.61,0.72-4.85,1.88C5.19,14.81,5.18,18.6,7.75,21.02L7.75,21.02z"/></g></svg>