<svg width="438" height="302" viewBox="0 0 438 302" fill="none" xmlns="http://www.w3.org/2000/svg">
<path d="M156.932 208.682L246.901 263.306L289.602 274.785L346.491 253.696L397.302 253.831L422.688 221.922L397.302 135.988L379 127.316L361.376 44.373L292.67 46.7829L279.924 91.7387L259.454 97.8844L239.72 136.917L193.68 148.212L156.932 208.682Z" fill="#37474F"/>
<path d="M344.275 208.159L284.55 229.286L213.908 195.586L286.108 214.914L344.275 208.159Z" fill="#263238"/>
<path d="M289.602 274.784L284.55 229.286L344.275 208.159L346.491 253.695L289.602 274.784Z" fill="#263238"/>
<path d="M382.911 167.52L397.303 253.831L422.689 221.922L397.303 135.988L382.911 167.52Z" fill="#263238"/>
<path d="M292.671 46.7829L352.144 63.9136L361.377 44.373L292.671 46.7829Z" fill="#374E91"/>
<path opacity="0.35" d="M292.671 46.7829L352.144 63.9136L361.377 44.373L292.671 46.7829Z" fill="white"/>
<path d="M379 127.315L363.854 159.622L278.462 175.291L382.91 167.519L397.302 135.987L379 127.315Z" fill="#263238"/>
<path d="M379.001 127.316L363.854 159.622L352.144 63.9136L361.377 44.373L379.001 127.316Z" fill="#263238"/>
<path d="M193.681 148.212L239.72 136.917L258.98 164.907L193.681 148.212Z" fill="#263238"/>
<path d="M279.924 91.7393L294.935 114.532L350.343 120.087L282.818 126.552L259.454 97.885L279.924 91.7393Z" fill="#263238"/>
<path d="M124.579 257.712L189.588 284.647L246.903 263.306L245.829 231.919L216.755 211.382L191.301 202.42L165.712 194.193L142.629 199.933L124.579 257.712Z" fill="#37474F"/>
<path d="M216.755 211.382L206.283 236.556L172.496 241.579L134.828 231.726L192.211 256.88L234.282 246.466L245.829 231.92L216.755 211.382Z" fill="#263238"/>
<path d="M189.588 284.646L192.211 256.879L234.282 246.465L245.829 231.919L246.903 263.306L189.588 284.646Z" fill="#263238"/>
<path d="M165.712 194.193L142.629 199.933L168.344 209.408L191.301 202.42L165.712 194.193Z" fill="#263238"/>
<path d="M344.18 291.141L366.682 301.845V283.727L351.864 274.949L344.18 291.141Z" fill="#263238"/>
<path d="M376.563 277.967L366.682 283.726V301.844L381.509 294.711L376.563 277.967Z" fill="#37474F"/>
<path d="M351.864 274.948L365.317 273.574L376.563 277.968L366.682 283.726L351.864 274.948Z" fill="#263238"/>
<path d="M375.74 288.913L379.97 291.662L386.948 290.287L382.254 288.11H379.05L375.74 288.913Z" fill="#263238"/>
<path d="M378.827 300.808L379.969 291.662L386.947 290.288L388.776 294.866L378.827 300.808Z" fill="#37474F"/>
<path d="M375.74 288.913L372.188 299.211L378.828 300.808L379.97 291.662L375.74 288.913Z" fill="#263238"/>
<path d="M344.18 291.141L366.682 301.845V283.727L351.864 274.949L344.18 291.141Z" fill="#263238"/>
<path d="M376.563 277.967L366.682 283.726V301.844L381.509 294.711L376.563 277.967Z" fill="#37474F"/>
<path d="M351.864 274.948L365.317 273.574L376.563 277.968L366.682 283.726L351.864 274.948Z" fill="#263238"/>
<path d="M375.74 288.913L379.97 291.662L386.948 290.287L382.254 288.11H379.05L375.74 288.913Z" fill="#263238"/>
<path d="M378.827 300.808L379.969 291.662L386.947 290.288L388.776 294.866L378.827 300.808Z" fill="#37474F"/>
<path d="M375.74 288.913L372.188 299.211L378.828 300.808L379.97 291.662L375.74 288.913Z" fill="#263238"/>
<path d="M117.617 175.992L117.559 234.623C117.549 235.233 119.136 235.262 119.156 234.633L119.214 176.147L117.617 175.992Z" fill="#37474F"/>
<path d="M119.474 176.302C119.349 176.883 118.778 177.251 118.197 177.125C117.616 176.999 117.248 176.428 117.374 175.847C117.5 175.267 118.071 174.899 118.652 175.025C119.223 175.15 119.591 175.722 119.474 176.302Z" fill="#37474F"/>
<path d="M117.606 176.756C112.68 182.631 105.692 180.008 99.9333 179.66C93.6908 179.282 89.8873 181.305 88 184.044C89.8002 183.56 94.8619 184.025 96.4588 185.341C96.4588 185.341 90.1002 189.503 90.0905 196.307C91.9391 193.422 95.1619 191.245 101.395 192.532C106.863 193.655 113.793 196.171 117.596 191.961L117.606 176.756Z" fill="#ED7F09"/>
<path opacity="0.1" d="M111.519 191.971C106.486 193.5 92.7813 186.812 90.0811 196.307C91.9296 193.422 95.1525 191.245 101.385 192.532C106.854 193.655 113.783 196.171 117.587 191.961L117.606 176.756C117.587 182.747 116.551 190.451 111.519 191.971Z" fill="black"/>
<path d="M207.617 91.9922L207.559 150.623C207.549 151.233 209.136 151.262 209.156 150.633L209.214 92.147L207.617 91.9922Z" fill="#37474F"/>
<path d="M209.474 92.3022C209.349 92.8829 208.778 93.2507 208.197 93.1249C207.616 92.999 207.248 92.428 207.374 91.8473C207.5 91.2666 208.071 90.8989 208.652 91.0247C209.223 91.1505 209.591 91.7215 209.474 92.3022Z" fill="#37474F"/>
<path d="M207.606 92.7563C202.68 98.6311 195.692 96.0083 189.933 95.6598C183.691 95.2824 179.887 97.3052 178 100.044C179.8 99.5602 184.862 100.025 186.459 101.341C186.459 101.341 180.1 105.503 180.091 112.307C181.939 109.422 185.162 107.245 191.395 108.532C196.863 109.655 203.793 112.171 207.596 107.961L207.606 92.7563Z" fill="#ED7F09"/>
<path opacity="0.1" d="M201.519 107.971C196.486 109.5 182.781 102.812 180.081 112.307C181.93 109.422 185.152 107.245 191.385 108.532C196.854 109.655 203.783 112.171 207.587 107.961L207.606 92.7563C207.587 98.7472 206.551 106.451 201.519 107.971Z" fill="black"/>
<path d="M306.617 0.992188L306.559 59.6234C306.549 60.2331 308.136 60.2622 308.156 59.6331L308.214 1.14704L306.617 0.992188Z" fill="#37474F"/>
<path d="M308.474 1.30221C308.349 1.8829 307.778 2.25068 307.197 2.12486C306.616 1.99904 306.248 1.42802 306.374 0.847324C306.5 0.266625 307.071 -0.101149 307.652 0.0246687C308.223 0.150487 308.591 0.721507 308.474 1.30221Z" fill="#37474F"/>
<path d="M306.606 1.75635C301.68 7.63108 294.692 5.00826 288.933 4.65984C282.691 4.28239 278.887 6.30515 277 9.04412C278.8 8.5602 283.862 9.02476 285.459 10.341C285.459 10.341 279.1 14.5027 279.091 21.3065C280.939 18.4224 284.162 16.2448 290.395 17.532C295.863 18.6547 302.793 21.171 306.596 16.961L306.606 1.75635Z" fill="#ED7F09"/>
<path opacity="0.1" d="M300.519 16.9707C295.486 18.4998 281.781 11.8121 279.081 21.3065C280.93 18.4224 284.152 16.2448 290.385 17.532C295.854 18.6547 302.783 21.171 306.587 16.961L306.606 1.75635C306.587 7.74722 305.551 15.4512 300.519 16.9707Z" fill="black"/>
<path d="M388.335 72.998L388.412 131.62C388.431 132.228 386.457 132.26 386.428 131.636L386.351 73.1618L388.335 72.998Z" fill="#37474F"/>
<path d="M386.031 73.303C386.186 73.8877 386.892 74.2542 387.618 74.1294C388.344 74.0047 388.798 73.4355 388.644 72.8508C388.489 72.266 387.782 71.8996 387.057 72.0244C386.331 72.1569 385.876 72.726 386.031 73.303Z" fill="#37474F"/>
<path d="M388.347 73.7583C394.463 79.6291 403.134 77.0095 410.276 76.6664C418.027 76.2922 422.74 78.3115 425.082 81.0481C422.847 80.5725 416.566 81.0247 414.592 82.3423C414.592 82.3423 422.488 86.4979 422.498 93.312C420.205 90.4273 416.208 88.2521 408.476 89.5307C401.682 90.6534 393.088 93.1717 388.366 88.9616L388.347 73.7583Z" fill="#ED7F09"/>
<path opacity="0.1" d="M395.897 88.9708C402.139 90.4989 419.152 83.8095 422.5 93.3057C420.206 90.421 416.21 88.2457 408.477 89.5244C401.684 90.6471 393.09 93.1653 388.368 88.9552L388.348 73.752C388.368 79.7475 389.655 87.4505 395.897 88.9708Z" fill="black"/>
<g opacity="0.35">
<path d="M435.948 165.864C442.719 162.912 428.987 161.193 413.407 160.628C397.827 160.063 378.979 160.094 369.023 158.487C359.394 156.933 360.103 154.169 359.293 151.664C358.483 149.16 354.781 146.592 339.756 146.036C321.032 145.342 290.155 148.012 276.02 146.409C262.83 144.913 270.671 140.22 251.437 140.041C240.454 139.938 226.305 141.485 214.085 141.859C205.422 142.234 196.744 141.782 188.167 140.507C182.211 139.531 178.062 138.294 171.358 137.432C153.758 135.169 119.323 135.93 88.5894 138.83C57.8554 141.731 31.5108 146.484 16.6532 151.192C1.79565 155.9 -2.30915 160.535 1.15177 164.466C3.36175 166.976 9.017 169.323 22.7352 170.332C48.3942 172.218 94.078 168.971 120.592 170.688C135.37 171.644 141.926 174.016 154.891 175.314C168.821 176.708 189.213 176.782 209.247 176.749C250.962 176.68 293.744 176.251 337.369 175.465C355.59 175.137 374.682 174.71 394.071 173.146C413.46 171.581 433.236 168.562 437.326 165.733" fill="white"/>
</g>
<g opacity="0.35">
<path d="M424.159 204.409C428.356 202.579 419.845 201.514 410.189 201.163C400.533 200.813 388.852 200.833 382.681 199.836C376.713 198.873 377.153 197.16 376.651 195.608C376.149 194.056 373.855 192.464 364.542 192.119C352.938 191.689 333.802 193.344 325.042 192.351C316.867 191.424 321.726 188.515 309.806 188.404C302.999 188.341 294.23 189.299 286.656 189.531C281.288 189.764 275.909 189.483 270.594 188.693C266.902 188.088 264.331 187.322 260.176 186.787C249.268 185.385 227.927 185.856 208.879 187.654C189.831 189.451 173.504 192.397 164.296 195.315C155.087 198.233 152.543 201.106 154.688 203.542C156.058 205.098 159.563 206.552 168.065 207.177C183.968 208.347 212.281 206.334 228.713 207.398C237.872 207.991 241.935 209.461 249.971 210.265C258.604 211.129 271.241 211.175 283.658 211.154C309.512 211.112 336.026 210.846 363.063 210.359C374.356 210.155 386.188 209.891 398.205 208.921C410.222 207.952 422.478 206.081 425.013 204.327" fill="white"/>
</g>
<path d="M275.902 141.478L275.805 228.389C275.785 229.299 278.137 229.338 278.176 228.409L278.273 141.73L275.902 141.478Z" fill="#37474F"/>
<path d="M278.65 141.932C278.466 142.794 277.614 143.345 276.753 143.161C275.891 142.978 275.34 142.126 275.524 141.265C275.708 140.403 276.559 139.851 277.421 140.035C278.282 140.219 278.834 141.071 278.65 141.932Z" fill="#37474F"/>
<path d="M275.891 142.612C268.594 151.322 258.238 147.432 249.692 146.919C240.439 146.367 234.807 149.348 232 153.413C234.671 152.706 242.172 153.374 244.533 155.339C244.533 155.339 235.107 161.504 235.097 171.598C237.836 167.321 242.617 164.098 251.85 165.995C259.961 167.659 270.229 171.395 275.862 165.153L275.891 142.612Z" fill="#ED7F09"/>
<path opacity="0.1" d="M266.871 165.162C259.419 167.426 239.095 157.516 235.088 171.588C237.827 167.31 242.608 164.087 251.841 165.984C259.951 167.649 270.22 171.385 275.853 165.142L275.882 142.602C275.853 151.486 274.324 162.907 266.871 165.162Z" fill="black"/>
<path opacity="0.5" d="M169.266 164.551L169.097 164.074L168.622 164.248C162.534 166.49 155.872 169.35 150.812 172.597C148.284 174.22 146.13 175.956 144.651 177.781C143.171 179.606 142.331 181.564 142.528 183.607C142.731 185.706 143.992 187.594 146.162 189.267C148.329 190.938 151.446 192.429 155.466 193.744L155.622 193.269L155.466 193.744C163.064 196.228 173.73 198.06 187.151 199.198C197.423 200.069 208.893 200.5 221.226 200.5C241.986 200.5 265.19 199.277 289.177 196.872C327.413 193.036 363.109 186.65 389.691 178.883C402.637 175.1 412.747 171.185 419.724 167.239C423.415 165.151 426.186 163.069 427.992 161C429.799 158.929 430.674 156.828 430.471 154.729C430.263 152.577 428.953 150.743 426.981 149.187C425.01 147.632 422.33 146.316 419.265 145.199C413.134 142.962 405.349 141.478 398.31 140.505L397.812 140.436L397.746 140.934L397.606 141.983L397.541 142.476L398.034 142.544C407.689 143.879 415.215 145.68 420.381 147.83C422.965 148.905 424.933 150.057 426.281 151.263C427.627 152.466 428.323 153.694 428.443 154.929C428.586 156.417 427.904 158.06 426.283 159.843C424.665 161.624 422.161 163.487 418.8 165.393C412.081 169.204 402.042 173.131 389.125 176.905C362.678 184.633 327.111 190.998 288.976 194.823C250.841 198.649 214.739 199.472 187.321 197.147C173.93 196.011 163.332 194.154 156.014 191.752C152.353 190.55 149.541 189.22 147.614 187.796C145.683 186.369 144.701 184.895 144.557 183.407C144.444 182.24 144.845 180.972 145.823 179.604C146.803 178.235 148.342 176.796 150.442 175.312C154.64 172.343 160.993 169.249 169.32 166.182L169.784 166.012L169.619 165.546L169.266 164.551Z" fill="#0AB1EE" stroke="#0AB1EE"/>
<path opacity="0.5" d="M376.988 197.495L376.956 197.994C382.291 198.331 387.199 198.5 391.679 198.5C398.497 198.5 404.319 198.109 409.071 197.325C413.235 196.639 416.53 195.649 418.912 194.348C421.297 193.046 422.818 191.402 423.321 189.394C423.837 187.334 423.204 185.202 421.861 183.111C420.517 181.019 418.427 178.91 415.911 176.856C410.875 172.744 404.035 168.773 397.728 165.52L397.285 165.291L397.055 165.734L396.578 166.653L396.347 167.098L396.793 167.327C405.444 171.789 411.937 175.967 416.094 179.676C418.172 181.531 419.646 183.251 420.518 184.812C421.388 186.37 421.637 187.73 421.344 188.9C420.991 190.31 419.813 191.592 417.698 192.691C415.588 193.789 412.616 194.666 408.823 195.297C401.24 196.557 390.492 196.812 377.085 195.964C349.636 194.226 314.048 188.182 276.879 178.939C239.71 169.696 205.445 158.369 180.395 147.051C168.16 141.523 158.792 136.265 152.693 131.602C149.641 129.27 147.432 127.104 146.087 125.147C144.739 123.187 144.303 121.504 144.656 120.095L144.656 120.095C144.933 118.989 145.724 117.959 147.095 117.028C148.468 116.095 150.391 115.286 152.858 114.621C157.789 113.293 164.792 112.571 173.644 112.535L174.144 112.532L174.142 112.032L174.137 110.998L174.135 110.498L173.635 110.5C167.165 110.526 159.949 110.929 154.116 112.226C151.2 112.874 148.6 113.751 146.605 114.936C144.609 116.122 143.168 117.647 142.679 119.602L142.679 119.602C142.176 121.611 142.744 123.775 144.235 126.041C145.726 128.306 148.168 130.722 151.52 133.277C157.854 138.108 167.293 143.364 179.555 148.904L179.76 148.449L179.555 148.904C204.732 160.28 239.121 171.646 276.387 180.913C313.652 190.18 349.368 196.248 376.956 197.994L376.988 197.495Z" fill="#0AB1EE" stroke="#0AB1EE"/>
</svg>
