<svg width="515" height="317" viewBox="0 0 515 317" fill="none" xmlns="http://www.w3.org/2000/svg">
<path d="M54.0835 72L58.2835 51H62.1835L58.6435 68.7H69.6235L68.9635 72H54.0835ZM80.956 72.21C79.396 72.21 78.026 71.92 76.846 71.34C75.686 70.74 74.786 69.92 74.146 68.88C73.506 67.82 73.186 66.58 73.186 65.16C73.186 63.36 73.596 61.76 74.416 60.36C75.236 58.94 76.356 57.83 77.776 57.03C79.216 56.21 80.856 55.8 82.696 55.8C84.276 55.8 85.646 56.09 86.806 56.67C87.986 57.23 88.896 58.04 89.536 59.1C90.176 60.14 90.496 61.38 90.496 62.82C90.496 64.6 90.086 66.2 89.266 67.62C88.446 69.04 87.316 70.16 85.876 70.98C84.456 71.8 82.816 72.21 80.956 72.21ZM81.196 69C82.276 69 83.226 68.75 84.046 68.25C84.866 67.73 85.516 67.02 85.996 66.12C86.476 65.22 86.716 64.18 86.716 63C86.716 61.76 86.346 60.78 85.606 60.06C84.866 59.34 83.826 58.98 82.486 58.98C81.426 58.98 80.476 59.24 79.636 59.76C78.816 60.26 78.166 60.96 77.686 61.86C77.206 62.76 76.966 63.8 76.966 64.98C76.966 66.24 77.336 67.23 78.076 67.95C78.816 68.65 79.856 69 81.196 69ZM93.872 72L97.052 55.98H100.622L99.722 60.54L99.392 59.22C100.132 57.92 101.072 57.03 102.212 56.55C103.352 56.05 104.742 55.8 106.382 55.8L105.692 59.37C105.532 59.33 105.382 59.31 105.242 59.31C105.102 59.29 104.942 59.28 104.762 59.28C103.302 59.28 102.092 59.67 101.132 60.45C100.172 61.21 99.532 62.43 99.212 64.11L97.622 72H93.872ZM115.717 72.21C114.117 72.21 112.727 71.92 111.547 71.34C110.367 70.74 109.447 69.92 108.787 68.88C108.147 67.82 107.827 66.58 107.827 65.16C107.827 63.34 108.227 61.73 109.027 60.33C109.827 58.93 110.917 57.83 112.297 57.03C113.697 56.21 115.287 55.8 117.067 55.8C118.567 55.8 119.867 56.08 120.967 56.64C122.067 57.2 122.917 58.01 123.517 59.07C124.137 60.11 124.447 61.36 124.447 62.82C124.447 63.2 124.427 63.59 124.387 63.99C124.347 64.39 124.287 64.76 124.207 65.1H110.617L111.037 62.61H122.437L120.907 63.45C121.067 62.43 120.997 61.58 120.697 60.9C120.397 60.22 119.917 59.7 119.257 59.34C118.597 58.98 117.807 58.8 116.887 58.8C115.787 58.8 114.827 59.06 114.007 59.58C113.207 60.08 112.587 60.8 112.147 61.74C111.707 62.66 111.487 63.74 111.487 64.98C111.487 66.28 111.857 67.28 112.597 67.98C113.357 68.68 114.527 69.03 116.107 69.03C117.007 69.03 117.867 68.89 118.687 68.61C119.507 68.31 120.187 67.9 120.727 67.38L122.287 69.99C121.447 70.73 120.447 71.29 119.287 71.67C118.147 72.03 116.957 72.21 115.717 72.21ZM150.731 55.8C152.131 55.8 153.301 56.08 154.241 56.64C155.181 57.2 155.841 58.03 156.221 59.13C156.601 60.21 156.631 61.54 156.311 63.12L154.541 72H150.791L152.561 63.21C152.821 61.89 152.711 60.87 152.231 60.15C151.751 59.43 150.881 59.07 149.621 59.07C148.321 59.07 147.251 59.45 146.411 60.21C145.591 60.95 145.021 62.1 144.701 63.66L143.021 72H139.271L141.041 63.21C141.301 61.89 141.191 60.87 140.711 60.15C140.231 59.43 139.361 59.07 138.101 59.07C136.801 59.07 135.731 59.45 134.891 60.21C134.071 60.95 133.501 62.11 133.181 63.69L131.501 72H127.751L130.931 55.98H134.501L133.631 60.39L133.001 59.1C133.741 57.96 134.661 57.13 135.761 56.61C136.881 56.07 138.101 55.8 139.421 55.8C140.461 55.8 141.381 55.98 142.181 56.34C142.981 56.68 143.621 57.21 144.101 57.93C144.601 58.63 144.891 59.5 144.971 60.54L143.171 60.15C143.991 58.71 145.041 57.63 146.321 56.91C147.621 56.17 149.091 55.8 150.731 55.8ZM170.984 72L175.184 51H179.084L174.884 72H170.984ZM191.394 72.21C190.054 72.21 188.894 71.97 187.914 71.49C186.934 70.99 186.194 70.26 185.694 69.3C185.194 68.32 184.964 67.11 185.004 65.67C185.044 63.67 185.404 61.93 186.084 60.45C186.764 58.97 187.714 57.83 188.934 57.03C190.174 56.21 191.644 55.8 193.344 55.8C194.664 55.8 195.854 56.08 196.914 56.64C197.974 57.18 198.814 57.98 199.434 59.04C200.074 60.08 200.394 61.34 200.394 62.82C200.394 64.18 200.164 65.43 199.704 66.57C199.264 67.71 198.634 68.7 197.814 69.54C196.994 70.38 196.034 71.04 194.934 71.52C193.854 71.98 192.674 72.21 191.394 72.21ZM180.534 77.82L184.884 55.98H188.454L187.734 59.64L186.744 63.9L186.204 68.19L184.284 77.82H180.534ZM191.094 69C192.174 69 193.124 68.75 193.944 68.25C194.764 67.73 195.414 67.02 195.894 66.12C196.374 65.22 196.614 64.18 196.614 63C196.614 61.76 196.244 60.78 195.504 60.06C194.764 59.34 193.724 58.98 192.384 58.98C191.324 58.98 190.374 59.24 189.534 59.76C188.714 60.26 188.064 60.96 187.584 61.86C187.104 62.76 186.864 63.8 186.864 64.98C186.864 66.22 187.234 67.2 187.974 67.92C188.714 68.64 189.754 69 191.094 69ZM209.23 72.21C207.83 72.21 206.52 72.04 205.3 71.7C204.08 71.36 203.14 70.95 202.48 70.47L204.04 67.59C204.7 68.05 205.52 68.43 206.5 68.73C207.5 69.01 208.54 69.15 209.62 69.15C210.86 69.15 211.77 68.98 212.35 68.64C212.95 68.3 213.25 67.83 213.25 67.23C213.25 66.79 213.04 66.46 212.62 66.24C212.2 66.02 211.66 65.84 211 65.7C210.36 65.56 209.66 65.41 208.9 65.25C208.16 65.09 207.46 64.87 206.8 64.59C206.16 64.31 205.63 63.9 205.21 63.36C204.79 62.82 204.58 62.1 204.58 61.2C204.58 60.06 204.9 59.09 205.54 58.29C206.18 57.49 207.07 56.88 208.21 56.46C209.37 56.02 210.7 55.8 212.2 55.8C213.28 55.8 214.34 55.92 215.38 56.16C216.42 56.4 217.28 56.74 217.96 57.18L216.58 60.06C215.86 59.6 215.08 59.28 214.24 59.1C213.42 58.92 212.62 58.83 211.84 58.83C210.62 58.83 209.71 59.02 209.11 59.4C208.53 59.76 208.24 60.22 208.24 60.78C208.24 61.22 208.45 61.56 208.87 61.8C209.29 62.04 209.82 62.24 210.46 62.4C211.12 62.54 211.82 62.69 212.56 62.85C213.32 62.99 214.02 63.2 214.66 63.48C215.32 63.76 215.86 64.17 216.28 64.71C216.7 65.23 216.91 65.93 216.91 66.81C216.91 67.97 216.58 68.96 215.92 69.78C215.28 70.58 214.38 71.19 213.22 71.61C212.06 72.01 210.73 72.21 209.23 72.21ZM227.58 72.21C226.24 72.21 225.09 71.93 224.13 71.37C223.19 70.79 222.52 69.96 222.12 68.88C221.72 67.78 221.68 66.44 222 64.86L223.77 55.98H227.52L225.75 64.77C225.51 66.07 225.63 67.09 226.11 67.83C226.61 68.55 227.51 68.91 228.81 68.91C230.15 68.91 231.27 68.53 232.17 67.77C233.09 67.01 233.7 65.85 234 64.29L235.68 55.98H239.4L236.22 72H232.65L233.55 67.44L234.15 68.88C233.39 70.02 232.43 70.86 231.27 71.4C230.13 71.94 228.9 72.21 227.58 72.21ZM265.61 55.8C267.01 55.8 268.18 56.08 269.12 56.64C270.06 57.2 270.72 58.03 271.1 59.13C271.48 60.21 271.51 61.54 271.19 63.12L269.42 72H265.67L267.44 63.21C267.7 61.89 267.59 60.87 267.11 60.15C266.63 59.43 265.76 59.07 264.5 59.07C263.2 59.07 262.13 59.45 261.29 60.21C260.47 60.95 259.9 62.1 259.58 63.66L257.9 72H254.15L255.92 63.21C256.18 61.89 256.07 60.87 255.59 60.15C255.11 59.43 254.24 59.07 252.98 59.07C251.68 59.07 250.61 59.45 249.77 60.21C248.95 60.95 248.38 62.11 248.06 63.69L246.38 72H242.63L245.81 55.98H249.38L248.51 60.39L247.88 59.1C248.62 57.96 249.54 57.13 250.64 56.61C251.76 56.07 252.98 55.8 254.3 55.8C255.34 55.8 256.26 55.98 257.06 56.34C257.86 56.68 258.5 57.21 258.98 57.93C259.48 58.63 259.77 59.5 259.85 60.54L258.05 60.15C258.87 58.71 259.92 57.63 261.2 56.91C262.5 56.17 263.97 55.8 265.61 55.8ZM285.863 72L290.063 51H293.963L289.763 72H285.863ZM302.043 72.21C300.643 72.21 299.333 72.04 298.113 71.7C296.893 71.36 295.953 70.95 295.293 70.47L296.853 67.59C297.513 68.05 298.333 68.43 299.313 68.73C300.313 69.01 301.353 69.15 302.433 69.15C303.673 69.15 304.583 68.98 305.163 68.64C305.763 68.3 306.063 67.83 306.063 67.23C306.063 66.79 305.853 66.46 305.433 66.24C305.013 66.02 304.473 65.84 303.813 65.7C303.173 65.56 302.473 65.41 301.713 65.25C300.973 65.09 300.273 64.87 299.613 64.59C298.973 64.31 298.443 63.9 298.023 63.36C297.603 62.82 297.393 62.1 297.393 61.2C297.393 60.06 297.713 59.09 298.353 58.29C298.993 57.49 299.883 56.88 301.023 56.46C302.183 56.02 303.513 55.8 305.013 55.8C306.093 55.8 307.153 55.92 308.193 56.16C309.233 56.4 310.093 56.74 310.773 57.18L309.393 60.06C308.673 59.6 307.893 59.28 307.053 59.1C306.233 58.92 305.433 58.83 304.653 58.83C303.433 58.83 302.523 59.02 301.923 59.4C301.343 59.76 301.053 60.22 301.053 60.78C301.053 61.22 301.263 61.56 301.683 61.8C302.103 62.04 302.633 62.24 303.273 62.4C303.933 62.54 304.633 62.69 305.373 62.85C306.133 62.99 306.833 63.2 307.473 63.48C308.133 63.76 308.673 64.17 309.093 64.71C309.513 65.23 309.723 65.93 309.723 66.81C309.723 67.97 309.393 68.96 308.733 69.78C308.093 70.58 307.193 71.19 306.033 71.61C304.873 72.01 303.543 72.21 302.043 72.21ZM330.543 72.3C329.443 72.3 328.373 72.19 327.333 71.97C326.313 71.75 325.373 71.46 324.513 71.1C323.673 70.72 322.973 70.3 322.413 69.84L324.063 66.78C324.643 67.26 325.303 67.67 326.043 68.01C326.783 68.35 327.563 68.61 328.383 68.79C329.223 68.97 330.063 69.06 330.903 69.06C331.923 69.06 332.813 68.94 333.573 68.7C334.333 68.46 334.913 68.12 335.313 67.68C335.733 67.24 335.943 66.71 335.943 66.09C335.943 65.53 335.753 65.08 335.373 64.74C334.993 64.38 334.483 64.09 333.843 63.87C333.223 63.63 332.533 63.41 331.773 63.21C331.033 62.99 330.283 62.75 329.523 62.49C328.763 62.21 328.073 61.87 327.453 61.47C326.833 61.05 326.323 60.52 325.923 59.88C325.543 59.24 325.353 58.44 325.353 57.48C325.353 56.1 325.733 54.91 326.493 53.91C327.273 52.89 328.343 52.1 329.703 51.54C331.083 50.98 332.683 50.7 334.503 50.7C335.863 50.7 337.153 50.85 338.373 51.15C339.593 51.45 340.643 51.89 341.523 52.47L339.993 55.56C339.213 55.04 338.333 54.64 337.353 54.36C336.373 54.08 335.353 53.94 334.293 53.94C333.253 53.94 332.353 54.07 331.593 54.33C330.833 54.59 330.253 54.95 329.853 55.41C329.453 55.87 329.243 56.41 329.223 57.03C329.223 57.61 329.413 58.08 329.793 58.44C330.173 58.78 330.673 59.07 331.293 59.31C331.913 59.55 332.603 59.78 333.363 60C334.123 60.2 334.873 60.43 335.613 60.69C336.373 60.95 337.073 61.28 337.713 61.68C338.353 62.08 338.863 62.59 339.243 63.21C339.623 63.81 339.813 64.57 339.813 65.49C339.813 66.87 339.423 68.07 338.643 69.09C337.883 70.11 336.803 70.9 335.403 71.46C334.023 72.02 332.403 72.3 330.543 72.3ZM343.681 72L346.861 55.98H350.611L347.431 72H343.681ZM349.591 53.34C348.911 53.34 348.361 53.14 347.941 52.74C347.541 52.32 347.341 51.82 347.341 51.24C347.341 50.56 347.571 49.99 348.031 49.53C348.511 49.07 349.131 48.84 349.891 48.84C350.551 48.84 351.091 49.04 351.511 49.44C351.931 49.82 352.141 50.29 352.141 50.85C352.141 51.59 351.911 52.19 351.451 52.65C350.991 53.11 350.371 53.34 349.591 53.34ZM376.832 55.8C378.232 55.8 379.402 56.08 380.342 56.64C381.282 57.2 381.942 58.03 382.322 59.13C382.702 60.21 382.732 61.54 382.412 63.12L380.642 72H376.892L378.662 63.21C378.922 61.89 378.812 60.87 378.332 60.15C377.852 59.43 376.982 59.07 375.722 59.07C374.422 59.07 373.352 59.45 372.512 60.21C371.692 60.95 371.122 62.1 370.802 63.66L369.122 72H365.372L367.142 63.21C367.402 61.89 367.292 60.87 366.812 60.15C366.332 59.43 365.462 59.07 364.202 59.07C362.902 59.07 361.832 59.45 360.992 60.21C360.172 60.95 359.602 62.11 359.282 63.69L357.602 72H353.852L357.032 55.98H360.602L359.732 60.39L359.102 59.1C359.842 57.96 360.762 57.13 361.862 56.61C362.982 56.07 364.202 55.8 365.522 55.8C366.562 55.8 367.482 55.98 368.282 56.34C369.082 56.68 369.722 57.21 370.202 57.93C370.702 58.63 370.992 59.5 371.072 60.54L369.272 60.15C370.092 58.71 371.142 57.63 372.422 56.91C373.722 56.17 375.192 55.8 376.832 55.8ZM396.624 72.21C395.284 72.21 394.124 71.97 393.144 71.49C392.164 70.99 391.424 70.26 390.924 69.3C390.424 68.32 390.194 67.11 390.234 65.67C390.274 63.67 390.634 61.93 391.314 60.45C391.994 58.97 392.944 57.83 394.164 57.03C395.404 56.21 396.874 55.8 398.574 55.8C399.894 55.8 401.084 56.08 402.144 56.64C403.204 57.18 404.044 57.98 404.664 59.04C405.304 60.08 405.624 61.34 405.624 62.82C405.624 64.18 405.394 65.43 404.934 66.57C404.494 67.71 403.864 68.7 403.044 69.54C402.224 70.38 401.264 71.04 400.164 71.52C399.084 71.98 397.904 72.21 396.624 72.21ZM385.764 77.82L390.114 55.98H393.684L392.964 59.64L391.974 63.9L391.434 68.19L389.514 77.82H385.764ZM396.324 69C397.404 69 398.354 68.75 399.174 68.25C399.994 67.73 400.644 67.02 401.124 66.12C401.604 65.22 401.844 64.18 401.844 63C401.844 61.76 401.474 60.78 400.734 60.06C399.994 59.34 398.954 58.98 397.614 58.98C396.554 58.98 395.604 59.24 394.764 59.76C393.944 60.26 393.294 60.96 392.814 61.86C392.334 62.76 392.094 63.8 392.094 64.98C392.094 66.22 392.464 67.2 393.204 67.92C393.944 68.64 394.984 69 396.324 69ZM409.001 72L413.441 49.74H417.191L412.751 72H409.001ZM419.593 78.03C418.793 78.03 418.013 77.9 417.253 77.64C416.473 77.38 415.853 77.04 415.393 76.62L417.253 73.89C417.593 74.19 417.973 74.43 418.393 74.61C418.833 74.81 419.333 74.91 419.893 74.91C420.513 74.91 421.063 74.74 421.543 74.4C422.043 74.08 422.543 73.52 423.043 72.72L424.453 70.53L424.813 70.14L433.633 55.98H437.383L426.343 73.41C425.603 74.57 424.893 75.49 424.213 76.17C423.533 76.85 422.823 77.33 422.083 77.61C421.363 77.89 420.533 78.03 419.593 78.03ZM423.703 72.57L419.773 55.98H423.523L426.673 69.81L423.703 72.57ZM79.2759 104L83.4759 83H91.9659C94.1059 83 95.9359 83.36 97.4559 84.08C98.9759 84.78 100.136 85.78 100.936 87.08C101.756 88.38 102.166 89.91 102.166 91.67C102.166 93.53 101.846 95.22 101.206 96.74C100.586 98.26 99.6959 99.56 98.5359 100.64C97.3959 101.7 96.0259 102.53 94.4259 103.13C92.8259 103.71 91.0459 104 89.0859 104H79.2759ZM83.8359 100.7H89.2059C91.0859 100.7 92.6959 100.32 94.0359 99.56C95.3959 98.78 96.4359 97.73 97.1559 96.41C97.8759 95.09 98.2359 93.59 98.2359 91.91C98.2359 90.77 97.9859 89.78 97.4859 88.94C96.9859 88.1 96.2359 87.45 95.2359 86.99C94.2559 86.53 93.0259 86.3 91.5459 86.3H86.7159L83.8359 100.7ZM112.071 104.21C110.731 104.21 109.581 103.93 108.621 103.37C107.681 102.79 107.011 101.96 106.611 100.88C106.211 99.78 106.171 98.44 106.491 96.86L108.261 87.98H112.011L110.241 96.77C110.001 98.07 110.121 99.09 110.601 99.83C111.101 100.55 112.001 100.91 113.301 100.91C114.641 100.91 115.761 100.53 116.661 99.77C117.581 99.01 118.191 97.85 118.491 96.29L120.171 87.98H123.891L120.711 104H117.141L118.041 99.44L118.641 100.88C117.881 102.02 116.921 102.86 115.761 103.4C114.621 103.94 113.391 104.21 112.071 104.21ZM150.101 87.8C151.501 87.8 152.671 88.08 153.611 88.64C154.551 89.2 155.211 90.03 155.591 91.13C155.971 92.21 156.001 93.54 155.681 95.12L153.911 104H150.161L151.931 95.21C152.191 93.89 152.081 92.87 151.601 92.15C151.121 91.43 150.251 91.07 148.991 91.07C147.691 91.07 146.621 91.45 145.781 92.21C144.961 92.95 144.391 94.1 144.071 95.66L142.391 104H138.641L140.411 95.21C140.671 93.89 140.561 92.87 140.081 92.15C139.601 91.43 138.731 91.07 137.471 91.07C136.171 91.07 135.101 91.45 134.261 92.21C133.441 92.95 132.871 94.11 132.551 95.69L130.871 104H127.121L130.301 87.98H133.871L133.001 92.39L132.371 91.1C133.111 89.96 134.031 89.13 135.131 88.61C136.251 88.07 137.471 87.8 138.791 87.8C139.831 87.8 140.751 87.98 141.551 88.34C142.351 88.68 142.991 89.21 143.471 89.93C143.971 90.63 144.261 91.5 144.341 92.54L142.541 92.15C143.361 90.71 144.411 89.63 145.691 88.91C146.991 88.17 148.461 87.8 150.101 87.8ZM183.183 87.8C184.583 87.8 185.753 88.08 186.693 88.64C187.633 89.2 188.293 90.03 188.673 91.13C189.053 92.21 189.083 93.54 188.763 95.12L186.993 104H183.243L185.013 95.21C185.273 93.89 185.163 92.87 184.683 92.15C184.203 91.43 183.333 91.07 182.073 91.07C180.773 91.07 179.703 91.45 178.863 92.21C178.043 92.95 177.473 94.1 177.153 95.66L175.473 104H171.723L173.493 95.21C173.753 93.89 173.643 92.87 173.163 92.15C172.683 91.43 171.813 91.07 170.553 91.07C169.253 91.07 168.183 91.45 167.343 92.21C166.523 92.95 165.953 94.11 165.633 95.69L163.953 104H160.203L163.383 87.98H166.953L166.083 92.39L165.453 91.1C166.193 89.96 167.113 89.13 168.213 88.61C169.333 88.07 170.553 87.8 171.873 87.8C172.913 87.8 173.833 87.98 174.633 88.34C175.433 88.68 176.073 89.21 176.553 89.93C177.053 90.63 177.343 91.5 177.423 92.54L175.623 92.15C176.443 90.71 177.493 89.63 178.773 88.91C180.073 88.17 181.543 87.8 183.183 87.8ZM193.412 110.03C192.612 110.03 191.832 109.9 191.072 109.64C190.292 109.38 189.672 109.04 189.212 108.62L191.072 105.89C191.412 106.19 191.792 106.43 192.212 106.61C192.652 106.81 193.152 106.91 193.712 106.91C194.332 106.91 194.882 106.74 195.362 106.4C195.862 106.08 196.362 105.52 196.862 104.72L198.272 102.53L198.632 102.14L207.452 87.98H211.202L200.162 105.41C199.422 106.57 198.712 107.49 198.032 108.17C197.352 108.85 196.642 109.33 195.902 109.61C195.182 109.89 194.352 110.03 193.412 110.03ZM197.522 104.57L193.592 87.98H197.342L200.492 101.81L197.522 104.57ZM226.247 104L229.787 86.3H222.827L223.487 83H241.277L240.617 86.3H233.657L230.147 104H226.247ZM247.573 104.21C245.973 104.21 244.583 103.92 243.403 103.34C242.223 102.74 241.303 101.92 240.643 100.88C240.003 99.82 239.683 98.58 239.683 97.16C239.683 95.34 240.083 93.73 240.883 92.33C241.683 90.93 242.773 89.83 244.153 89.03C245.553 88.21 247.143 87.8 248.923 87.8C250.423 87.8 251.723 88.08 252.823 88.64C253.923 89.2 254.773 90.01 255.373 91.07C255.993 92.11 256.303 93.36 256.303 94.82C256.303 95.2 256.283 95.59 256.243 95.99C256.203 96.39 256.143 96.76 256.063 97.1H242.473L242.893 94.61H254.293L252.763 95.45C252.923 94.43 252.853 93.58 252.553 92.9C252.253 92.22 251.773 91.7 251.113 91.34C250.453 90.98 249.663 90.8 248.743 90.8C247.643 90.8 246.683 91.06 245.863 91.58C245.063 92.08 244.443 92.8 244.003 93.74C243.563 94.66 243.343 95.74 243.343 96.98C243.343 98.28 243.713 99.28 244.453 99.98C245.213 100.68 246.383 101.03 247.963 101.03C248.863 101.03 249.723 100.89 250.543 100.61C251.363 100.31 252.043 99.9 252.583 99.38L254.143 101.99C253.303 102.73 252.303 103.29 251.143 103.67C250.003 104.03 248.813 104.21 247.573 104.21ZM256.918 104L265.918 94.73L265.498 96.68L260.608 87.98H264.508L268.048 94.4L266.308 94.37L272.428 87.98H276.628L268.018 96.92L268.318 94.85L273.508 104H269.548L265.858 97.31H267.568L261.238 104H256.918ZM283.865 104.21C282.825 104.21 281.925 103.99 281.165 103.55C280.425 103.09 279.885 102.45 279.545 101.63C279.225 100.79 279.175 99.8 279.395 98.66L282.245 84.44H285.995L283.145 98.63C283.025 99.37 283.105 99.97 283.385 100.43C283.665 100.89 284.195 101.12 284.975 101.12C285.335 101.12 285.695 101.07 286.055 100.97C286.435 100.85 286.775 100.69 287.075 100.49L287.735 103.25C287.175 103.61 286.555 103.86 285.875 104C285.195 104.14 284.525 104.21 283.865 104.21ZM278.315 91.1L278.915 88.1H289.565L288.965 91.1H278.315ZM312.731 104.3C310.611 104.3 308.801 103.92 307.301 103.16C305.801 102.4 304.651 101.35 303.851 100.01C303.071 98.65 302.681 97.09 302.681 95.33C302.681 93.55 302.981 91.9 303.581 90.38C304.181 88.84 305.051 87.5 306.191 86.36C307.331 85.22 308.691 84.33 310.271 83.69C311.851 83.03 313.611 82.7 315.551 82.7C317.651 82.7 319.451 83.08 320.951 83.84C322.451 84.6 323.601 85.66 324.401 87.02C325.201 88.36 325.601 89.91 325.601 91.67C325.601 93.45 325.291 95.11 324.671 96.65C324.071 98.17 323.201 99.5 322.061 100.64C320.921 101.78 319.561 102.68 317.981 103.34C316.421 103.98 314.671 104.3 312.731 104.3ZM313.061 100.88C314.381 100.88 315.571 100.65 316.631 100.19C317.691 99.71 318.591 99.06 319.331 98.24C320.091 97.4 320.671 96.44 321.071 95.36C321.471 94.26 321.671 93.11 321.671 91.91C321.671 90.77 321.421 89.76 320.921 88.88C320.421 88 319.691 87.32 318.731 86.84C317.771 86.36 316.591 86.12 315.191 86.12C313.891 86.12 312.701 86.36 311.621 86.84C310.561 87.3 309.651 87.95 308.891 88.79C308.151 89.61 307.581 90.57 307.181 91.67C306.801 92.75 306.611 93.89 306.611 95.09C306.611 96.23 306.851 97.24 307.331 98.12C307.831 99 308.561 99.68 309.521 100.16C310.481 100.64 311.661 100.88 313.061 100.88ZM329.251 104L332.671 86.96C333.011 85.28 333.721 83.96 334.801 83C335.881 82.02 337.321 81.53 339.121 81.53C339.801 81.53 340.451 81.61 341.071 81.77C341.691 81.93 342.211 82.17 342.631 82.49L341.101 85.22C340.561 84.78 339.901 84.56 339.121 84.56C338.341 84.56 337.721 84.78 337.261 85.22C336.801 85.66 336.471 86.33 336.271 87.23L335.881 89.03L335.701 90.56L333.001 104H329.251ZM329.221 91.1L329.821 88.1H340.471L339.871 91.1H329.221ZM355.757 104L359.297 86.3H352.337L352.997 83H370.787L370.127 86.3H363.167L359.657 104H355.757ZM382.593 87.8C383.973 87.8 385.133 88.08 386.073 88.64C387.033 89.2 387.713 90.03 388.113 91.13C388.513 92.21 388.553 93.54 388.233 95.12L386.463 104H382.713L384.453 95.21C384.713 93.91 384.593 92.9 384.093 92.18C383.593 91.44 382.683 91.07 381.363 91.07C379.983 91.07 378.843 91.45 377.943 92.21C377.043 92.97 376.433 94.13 376.113 95.69L374.433 104H370.683L375.123 81.74H378.873L376.713 92.54L375.933 91.1C376.693 89.96 377.643 89.13 378.783 88.61C379.943 88.07 381.213 87.8 382.593 87.8ZM400.79 104.21C399.19 104.21 397.8 103.92 396.62 103.34C395.44 102.74 394.52 101.92 393.86 100.88C393.22 99.82 392.9 98.58 392.9 97.16C392.9 95.34 393.3 93.73 394.1 92.33C394.9 90.93 395.99 89.83 397.37 89.03C398.77 88.21 400.36 87.8 402.14 87.8C403.64 87.8 404.94 88.08 406.04 88.64C407.14 89.2 407.99 90.01 408.59 91.07C409.21 92.11 409.52 93.36 409.52 94.82C409.52 95.2 409.5 95.59 409.46 95.99C409.42 96.39 409.36 96.76 409.28 97.1H395.69L396.11 94.61H407.51L405.98 95.45C406.14 94.43 406.07 93.58 405.77 92.9C405.47 92.22 404.99 91.7 404.33 91.34C403.67 90.98 402.88 90.8 401.96 90.8C400.86 90.8 399.9 91.06 399.08 91.58C398.28 92.08 397.66 92.8 397.22 93.74C396.78 94.66 396.56 95.74 396.56 96.98C396.56 98.28 396.93 99.28 397.67 99.98C398.43 100.68 399.6 101.03 401.18 101.03C402.08 101.03 402.94 100.89 403.76 100.61C404.58 100.31 405.26 99.9 405.8 99.38L407.36 101.99C406.52 102.73 405.52 103.29 404.36 103.67C403.22 104.03 402.03 104.21 400.79 104.21ZM33.8892 136L38.0892 115H46.1892C48.7292 115 50.6892 115.56 52.0692 116.68C53.4692 117.8 54.1692 119.35 54.1692 121.33C54.1692 123.11 53.7592 124.65 52.9392 125.95C52.1392 127.23 50.9892 128.22 49.4892 128.92C47.9892 129.6 46.2092 129.94 44.1492 129.94H37.3092L39.3792 128.08L37.7892 136H33.8892ZM39.2892 128.53L37.9092 126.64H44.2992C46.1792 126.64 47.6392 126.22 48.6792 125.38C49.7192 124.54 50.2392 123.31 50.2392 121.69C50.2392 120.55 49.8492 119.7 49.0692 119.14C48.3092 118.58 47.2092 118.3 45.7692 118.3H39.6792L41.7192 116.35L39.2892 128.53ZM56.3573 136L59.5373 119.98H63.1073L62.2073 124.54L61.8773 123.22C62.6173 121.92 63.5573 121.03 64.6973 120.55C65.8373 120.05 67.2273 119.8 68.8673 119.8L68.1773 123.37C68.0173 123.33 67.8673 123.31 67.7273 123.31C67.5873 123.29 67.4273 123.28 67.2473 123.28C65.7873 123.28 64.5773 123.67 63.6173 124.45C62.6573 125.21 62.0173 126.43 61.6973 128.11L60.1073 136H56.3573ZM70.3085 136L73.4885 119.98H77.2385L74.0585 136H70.3085ZM76.2185 117.34C75.5385 117.34 74.9885 117.14 74.5685 116.74C74.1685 116.32 73.9685 115.82 73.9685 115.24C73.9685 114.56 74.1985 113.99 74.6585 113.53C75.1385 113.07 75.7585 112.84 76.5185 112.84C77.1785 112.84 77.7185 113.04 78.1385 113.44C78.5585 113.82 78.7685 114.29 78.7685 114.85C78.7685 115.59 78.5385 116.19 78.0785 116.65C77.6185 117.11 76.9985 117.34 76.2185 117.34ZM92.3904 119.8C93.7704 119.8 94.9404 120.08 95.9004 120.64C96.8604 121.2 97.5304 122.03 97.9104 123.13C98.3104 124.21 98.3504 125.54 98.0304 127.12L96.2604 136H92.5104L94.2504 127.21C94.5104 125.91 94.3904 124.9 93.8904 124.18C93.3904 123.44 92.4804 123.07 91.1604 123.07C89.7804 123.07 88.6404 123.45 87.7404 124.21C86.8404 124.97 86.2304 126.13 85.9104 127.69L84.2304 136H80.4804L83.6604 119.98H87.2304L86.3304 124.54L85.7304 123.1C86.4904 121.96 87.4404 121.13 88.5804 120.61C89.7404 120.07 91.0104 119.8 92.3904 119.8ZM108.517 136.21C107.477 136.21 106.577 135.99 105.817 135.55C105.077 135.09 104.537 134.45 104.197 133.63C103.877 132.79 103.827 131.8 104.047 130.66L106.897 116.44H110.647L107.797 130.63C107.677 131.37 107.757 131.97 108.037 132.43C108.317 132.89 108.847 133.12 109.627 133.12C109.987 133.12 110.347 133.07 110.707 132.97C111.087 132.85 111.427 132.69 111.727 132.49L112.387 135.25C111.827 135.61 111.207 135.86 110.527 136C109.847 136.14 109.177 136.21 108.517 136.21ZM102.967 123.1L103.567 120.1H114.217L113.617 123.1H102.967ZM116.732 136L119.912 119.98H123.662L120.482 136H116.732ZM122.642 117.34C121.962 117.34 121.412 117.14 120.992 116.74C120.592 116.32 120.392 115.82 120.392 115.24C120.392 114.56 120.622 113.99 121.082 113.53C121.562 113.07 122.182 112.84 122.942 112.84C123.602 112.84 124.142 113.04 124.562 113.44C124.982 113.82 125.192 114.29 125.192 114.85C125.192 115.59 124.962 116.19 124.502 116.65C124.042 117.11 123.422 117.34 122.642 117.34ZM138.814 119.8C140.194 119.8 141.364 120.08 142.324 120.64C143.284 121.2 143.954 122.03 144.334 123.13C144.734 124.21 144.774 125.54 144.454 127.12L142.684 136H138.934L140.674 127.21C140.934 125.91 140.814 124.9 140.314 124.18C139.814 123.44 138.904 123.07 137.584 123.07C136.204 123.07 135.064 123.45 134.164 124.21C133.264 124.97 132.654 126.13 132.334 127.69L130.654 136H126.904L130.084 119.98H133.654L132.754 124.54L132.154 123.1C132.914 121.96 133.864 121.13 135.004 120.61C136.164 120.07 137.434 119.8 138.814 119.8ZM155.451 142.03C153.931 142.03 152.531 141.84 151.251 141.46C149.971 141.1 148.871 140.56 147.951 139.84L149.901 137.02C150.521 137.56 151.341 137.99 152.361 138.31C153.381 138.65 154.491 138.82 155.691 138.82C157.451 138.82 158.781 138.43 159.681 137.65C160.581 136.89 161.181 135.74 161.481 134.2L162.141 130.9L163.131 127.51L163.731 123.88L164.481 119.98H168.051L165.351 133.57C164.751 136.55 163.631 138.7 161.991 140.02C160.351 141.36 158.171 142.03 155.451 142.03ZM156.381 135.28C155.001 135.28 153.771 135.02 152.691 134.5C151.611 133.96 150.761 133.2 150.141 132.22C149.521 131.22 149.211 130.03 149.211 128.65C149.211 127.39 149.431 126.23 149.871 125.17C150.331 124.09 150.961 123.15 151.761 122.35C152.581 121.55 153.541 120.93 154.641 120.49C155.761 120.03 156.981 119.8 158.301 119.8C159.461 119.8 160.531 120.01 161.511 120.43C162.491 120.83 163.271 121.49 163.851 122.41C164.431 123.31 164.701 124.5 164.661 125.98C164.621 127.74 164.271 129.33 163.611 130.75C162.951 132.15 162.011 133.26 160.791 134.08C159.571 134.88 158.101 135.28 156.381 135.28ZM157.221 132.1C158.301 132.1 159.251 131.87 160.071 131.41C160.891 130.93 161.531 130.28 161.991 129.46C162.471 128.62 162.711 127.68 162.711 126.64C162.711 125.5 162.341 124.61 161.601 123.97C160.861 123.31 159.831 122.98 158.511 122.98C157.431 122.98 156.481 123.22 155.661 123.7C154.841 124.16 154.191 124.8 153.711 125.62C153.231 126.44 152.991 127.38 152.991 128.44C152.991 129.58 153.361 130.48 154.101 131.14C154.861 131.78 155.901 132.1 157.221 132.1ZM178.482 136L192.132 115H196.002L201.222 136H197.352L192.972 117.01H194.532L182.652 136H178.482ZM183.822 131.14L185.472 128.08H196.782L197.292 131.14H183.822ZM216.972 119.8C218.352 119.8 219.522 120.08 220.482 120.64C221.442 121.2 222.112 122.03 222.492 123.13C222.892 124.21 222.932 125.54 222.612 127.12L220.842 136H217.092L218.832 127.21C219.092 125.91 218.972 124.9 218.472 124.18C217.972 123.44 217.062 123.07 215.742 123.07C214.362 123.07 213.222 123.45 212.322 124.21C211.422 124.97 210.812 126.13 210.492 127.69L208.812 136H205.062L208.242 119.98H211.812L210.912 124.54L210.312 123.1C211.072 121.96 212.022 121.13 213.162 120.61C214.322 120.07 215.592 119.8 216.972 119.8ZM234.359 136.21C233.059 136.21 231.869 135.93 230.789 135.37C229.709 134.81 228.859 134.01 228.239 132.97C227.619 131.91 227.309 130.64 227.309 129.16C227.309 127.8 227.529 126.55 227.969 125.41C228.429 124.27 229.069 123.28 229.889 122.44C230.709 121.6 231.659 120.95 232.739 120.49C233.839 120.03 235.029 119.8 236.309 119.8C237.629 119.8 238.769 120.03 239.729 120.49C240.689 120.95 241.429 121.64 241.949 122.56C242.469 123.48 242.729 124.62 242.729 125.98C242.729 127.48 242.539 128.86 242.159 130.12C241.779 131.36 241.229 132.44 240.509 133.36C239.789 134.26 238.909 134.96 237.869 135.46C236.849 135.96 235.679 136.21 234.359 136.21ZM235.319 133C236.379 133 237.319 132.75 238.139 132.25C238.979 131.73 239.629 131.02 240.089 130.12C240.569 129.22 240.809 128.18 240.809 127C240.809 125.76 240.439 124.78 239.699 124.06C238.979 123.34 237.939 122.98 236.579 122.98C235.539 122.98 234.599 123.24 233.759 123.76C232.919 124.26 232.259 124.96 231.779 125.86C231.319 126.76 231.089 127.8 231.089 128.98C231.089 130.22 231.449 131.2 232.169 131.92C232.909 132.64 233.959 133 235.319 133ZM239.219 136L239.969 132.34L240.959 128.08L241.469 123.79L243.479 113.74H247.229L242.789 136H239.219ZM263.636 136L267.176 118.3H260.216L260.876 115H278.666L278.006 118.3H271.046L267.536 136H263.636ZM277.986 142.03C277.186 142.03 276.406 141.9 275.646 141.64C274.866 141.38 274.246 141.04 273.786 140.62L275.646 137.89C275.986 138.19 276.366 138.43 276.786 138.61C277.226 138.81 277.726 138.91 278.286 138.91C278.906 138.91 279.456 138.74 279.936 138.4C280.436 138.08 280.936 137.52 281.436 136.72L282.846 134.53L283.206 134.14L292.026 119.98H295.776L284.736 137.41C283.996 138.57 283.286 139.49 282.606 140.17C281.926 140.85 281.216 141.33 280.476 141.61C279.756 141.89 278.926 142.03 277.986 142.03ZM282.096 136.57L278.166 119.98H281.916L285.066 133.81L282.096 136.57ZM306.1 136.21C304.76 136.21 303.6 135.97 302.62 135.49C301.64 134.99 300.9 134.26 300.4 133.3C299.9 132.32 299.67 131.11 299.71 129.67C299.75 127.67 300.11 125.93 300.79 124.45C301.47 122.97 302.42 121.83 303.64 121.03C304.88 120.21 306.35 119.8 308.05 119.8C309.37 119.8 310.56 120.08 311.62 120.64C312.68 121.18 313.52 121.98 314.14 123.04C314.78 124.08 315.1 125.34 315.1 126.82C315.1 128.18 314.87 129.43 314.41 130.57C313.97 131.71 313.34 132.7 312.52 133.54C311.7 134.38 310.74 135.04 309.64 135.52C308.56 135.98 307.38 136.21 306.1 136.21ZM295.24 141.82L299.59 119.98H303.16L302.44 123.64L301.45 127.9L300.91 132.19L298.99 141.82H295.24ZM305.8 133C306.88 133 307.83 132.75 308.65 132.25C309.47 131.73 310.12 131.02 310.6 130.12C311.08 129.22 311.32 128.18 311.32 127C311.32 125.76 310.95 124.78 310.21 124.06C309.47 123.34 308.43 122.98 307.09 122.98C306.03 122.98 305.08 123.24 304.24 123.76C303.42 124.26 302.77 124.96 302.29 125.86C301.81 126.76 301.57 127.8 301.57 128.98C301.57 130.22 301.94 131.2 302.68 131.92C303.42 132.64 304.46 133 305.8 133ZM326.516 136.21C324.916 136.21 323.526 135.92 322.346 135.34C321.166 134.74 320.246 133.92 319.586 132.88C318.946 131.82 318.626 130.58 318.626 129.16C318.626 127.34 319.026 125.73 319.826 124.33C320.626 122.93 321.716 121.83 323.096 121.03C324.496 120.21 326.086 119.8 327.866 119.8C329.366 119.8 330.666 120.08 331.766 120.64C332.866 121.2 333.716 122.01 334.316 123.07C334.936 124.11 335.246 125.36 335.246 126.82C335.246 127.2 335.226 127.59 335.186 127.99C335.146 128.39 335.086 128.76 335.006 129.1H321.416L321.836 126.61H333.236L331.706 127.45C331.866 126.43 331.796 125.58 331.496 124.9C331.196 124.22 330.716 123.7 330.056 123.34C329.396 122.98 328.606 122.8 327.686 122.8C326.586 122.8 325.626 123.06 324.806 123.58C324.006 124.08 323.386 124.8 322.946 125.74C322.506 126.66 322.286 127.74 322.286 128.98C322.286 130.28 322.656 131.28 323.396 131.98C324.156 132.68 325.326 133.03 326.906 133.03C327.806 133.03 328.666 132.89 329.486 132.61C330.306 132.31 330.986 131.9 331.526 131.38L333.086 133.99C332.246 134.73 331.246 135.29 330.086 135.67C328.946 136.03 327.756 136.21 326.516 136.21ZM344.011 136.21C342.611 136.21 341.301 136.04 340.081 135.7C338.861 135.36 337.921 134.95 337.261 134.47L338.821 131.59C339.481 132.05 340.301 132.43 341.281 132.73C342.281 133.01 343.321 133.15 344.401 133.15C345.641 133.15 346.551 132.98 347.131 132.64C347.731 132.3 348.031 131.83 348.031 131.23C348.031 130.79 347.821 130.46 347.401 130.24C346.981 130.02 346.441 129.84 345.781 129.7C345.141 129.56 344.441 129.41 343.681 129.25C342.941 129.09 342.241 128.87 341.581 128.59C340.941 128.31 340.411 127.9 339.991 127.36C339.571 126.82 339.361 126.1 339.361 125.2C339.361 124.06 339.681 123.09 340.321 122.29C340.961 121.49 341.851 120.88 342.991 120.46C344.151 120.02 345.481 119.8 346.981 119.8C348.061 119.8 349.121 119.92 350.161 120.16C351.201 120.4 352.061 120.74 352.741 121.18L351.361 124.06C350.641 123.6 349.861 123.28 349.021 123.1C348.201 122.92 347.401 122.83 346.621 122.83C345.401 122.83 344.491 123.02 343.891 123.4C343.311 123.76 343.021 124.22 343.021 124.78C343.021 125.22 343.231 125.56 343.651 125.8C344.071 126.04 344.601 126.24 345.241 126.4C345.901 126.54 346.601 126.69 347.341 126.85C348.101 126.99 348.801 127.2 349.441 127.48C350.101 127.76 350.641 128.17 351.061 128.71C351.481 129.23 351.691 129.93 351.691 130.81C351.691 131.97 351.361 132.96 350.701 133.78C350.061 134.58 349.161 135.19 348.001 135.61C346.841 136.01 345.511 136.21 344.011 136.21ZM363.53 136.21C361.93 136.21 360.54 135.92 359.36 135.34C358.18 134.74 357.26 133.92 356.6 132.88C355.96 131.82 355.64 130.58 355.64 129.16C355.64 127.34 356.04 125.73 356.84 124.33C357.64 122.93 358.73 121.83 360.11 121.03C361.51 120.21 363.1 119.8 364.88 119.8C366.38 119.8 367.68 120.08 368.78 120.64C369.88 121.2 370.73 122.01 371.33 123.07C371.95 124.11 372.26 125.36 372.26 126.82C372.26 127.2 372.24 127.59 372.2 127.99C372.16 128.39 372.1 128.76 372.02 129.1H358.43L358.85 126.61H370.25L368.72 127.45C368.88 126.43 368.81 125.58 368.51 124.9C368.21 124.22 367.73 123.7 367.07 123.34C366.41 122.98 365.62 122.8 364.7 122.8C363.6 122.8 362.64 123.06 361.82 123.58C361.02 124.08 360.4 124.8 359.96 125.74C359.52 126.66 359.3 127.74 359.3 128.98C359.3 130.28 359.67 131.28 360.41 131.98C361.17 132.68 362.34 133.03 363.92 133.03C364.82 133.03 365.68 132.89 366.5 132.61C367.32 132.31 368 131.9 368.54 131.38L370.1 133.99C369.26 134.73 368.26 135.29 367.1 135.67C365.96 136.03 364.77 136.21 363.53 136.21ZM381.564 136.21C380.524 136.21 379.624 135.99 378.864 135.55C378.124 135.09 377.584 134.45 377.244 133.63C376.924 132.79 376.874 131.8 377.094 130.66L379.944 116.44H383.694L380.844 130.63C380.724 131.37 380.804 131.97 381.084 132.43C381.364 132.89 381.894 133.12 382.674 133.12C383.034 133.12 383.394 133.07 383.754 132.97C384.134 132.85 384.474 132.69 384.774 132.49L385.434 135.25C384.874 135.61 384.254 135.86 383.574 136C382.894 136.14 382.224 136.21 381.564 136.21ZM376.014 123.1L376.614 120.1H387.264L386.664 123.1H376.014ZM395.428 136.21C394.388 136.21 393.488 135.99 392.728 135.55C391.988 135.09 391.448 134.45 391.108 133.63C390.788 132.79 390.738 131.8 390.958 130.66L393.808 116.44H397.558L394.708 130.63C394.588 131.37 394.668 131.97 394.948 132.43C395.228 132.89 395.758 133.12 396.538 133.12C396.898 133.12 397.258 133.07 397.618 132.97C397.998 132.85 398.338 132.69 398.638 132.49L399.298 135.25C398.738 135.61 398.118 135.86 397.438 136C396.758 136.14 396.088 136.21 395.428 136.21ZM389.878 123.1L390.478 120.1H401.128L400.528 123.1H389.878ZM403.642 136L406.822 119.98H410.572L407.392 136H403.642ZM409.552 117.34C408.872 117.34 408.322 117.14 407.902 116.74C407.502 116.32 407.302 115.82 407.302 115.24C407.302 114.56 407.532 113.99 407.992 113.53C408.472 113.07 409.092 112.84 409.852 112.84C410.512 112.84 411.052 113.04 411.472 113.44C411.892 113.82 412.102 114.29 412.102 114.85C412.102 115.59 411.872 116.19 411.412 116.65C410.952 117.11 410.332 117.34 409.552 117.34ZM425.724 119.8C427.104 119.8 428.274 120.08 429.234 120.64C430.194 121.2 430.864 122.03 431.244 123.13C431.644 124.21 431.684 125.54 431.364 127.12L429.594 136H425.844L427.584 127.21C427.844 125.91 427.724 124.9 427.224 124.18C426.724 123.44 425.814 123.07 424.494 123.07C423.114 123.07 421.974 123.45 421.074 124.21C420.174 124.97 419.564 126.13 419.244 127.69L417.564 136H413.814L416.994 119.98H420.564L419.664 124.54L419.064 123.1C419.824 121.96 420.774 121.13 421.914 120.61C423.074 120.07 424.344 119.8 425.724 119.8ZM442.361 142.03C440.841 142.03 439.441 141.84 438.161 141.46C436.881 141.1 435.781 140.56 434.861 139.84L436.811 137.02C437.431 137.56 438.251 137.99 439.271 138.31C440.291 138.65 441.401 138.82 442.601 138.82C444.361 138.82 445.691 138.43 446.591 137.65C447.491 136.89 448.091 135.74 448.391 134.2L449.051 130.9L450.041 127.51L450.641 123.88L451.391 119.98H454.961L452.261 133.57C451.661 136.55 450.541 138.7 448.901 140.02C447.261 141.36 445.081 142.03 442.361 142.03ZM443.291 135.28C441.911 135.28 440.681 135.02 439.601 134.5C438.521 133.96 437.671 133.2 437.051 132.22C436.431 131.22 436.121 130.03 436.121 128.65C436.121 127.39 436.341 126.23 436.781 125.17C437.241 124.09 437.871 123.15 438.671 122.35C439.491 121.55 440.451 120.93 441.551 120.49C442.671 120.03 443.891 119.8 445.211 119.8C446.371 119.8 447.441 120.01 448.421 120.43C449.401 120.83 450.181 121.49 450.761 122.41C451.341 123.31 451.611 124.5 451.571 125.98C451.531 127.74 451.181 129.33 450.521 130.75C449.861 132.15 448.921 133.26 447.701 134.08C446.481 134.88 445.011 135.28 443.291 135.28ZM444.131 132.1C445.211 132.1 446.161 131.87 446.981 131.41C447.801 130.93 448.441 130.28 448.901 129.46C449.381 128.62 449.621 127.68 449.621 126.64C449.621 125.5 449.251 124.61 448.511 123.97C447.771 123.31 446.741 122.98 445.421 122.98C444.341 122.98 443.391 123.22 442.571 123.7C441.751 124.16 441.101 124.8 440.621 125.62C440.141 126.44 439.901 127.38 439.901 128.44C439.901 129.58 440.271 130.48 441.011 131.14C441.771 131.78 442.811 132.1 444.131 132.1ZM171.467 168L175.667 147H179.567L175.367 168H171.467ZM194.097 151.8C195.477 151.8 196.647 152.08 197.607 152.64C198.567 153.2 199.237 154.03 199.617 155.13C200.017 156.21 200.057 157.54 199.737 159.12L197.967 168H194.217L195.957 159.21C196.217 157.91 196.097 156.9 195.597 156.18C195.097 155.44 194.187 155.07 192.867 155.07C191.487 155.07 190.347 155.45 189.447 156.21C188.547 156.97 187.937 158.13 187.617 159.69L185.937 168H182.187L185.367 151.98H188.937L188.037 156.54L187.437 155.1C188.197 153.96 189.147 153.13 190.287 152.61C191.447 152.07 192.717 151.8 194.097 151.8ZM211.484 168.21C210.184 168.21 208.994 167.93 207.914 167.37C206.834 166.81 205.984 166.01 205.364 164.97C204.744 163.91 204.434 162.64 204.434 161.16C204.434 159.8 204.654 158.55 205.094 157.41C205.554 156.27 206.194 155.28 207.014 154.44C207.834 153.6 208.784 152.95 209.864 152.49C210.964 152.03 212.154 151.8 213.434 151.8C214.754 151.8 215.894 152.03 216.854 152.49C217.814 152.95 218.554 153.64 219.074 154.56C219.594 155.48 219.854 156.62 219.854 157.98C219.854 159.48 219.664 160.86 219.284 162.12C218.904 163.36 218.354 164.44 217.634 165.36C216.914 166.26 216.034 166.96 214.994 167.46C213.974 167.96 212.804 168.21 211.484 168.21ZM212.444 165C213.504 165 214.444 164.75 215.264 164.25C216.104 163.73 216.754 163.02 217.214 162.12C217.694 161.22 217.934 160.18 217.934 159C217.934 157.76 217.564 156.78 216.824 156.06C216.104 155.34 215.064 154.98 213.704 154.98C212.664 154.98 211.724 155.24 210.884 155.76C210.044 156.26 209.384 156.96 208.904 157.86C208.444 158.76 208.214 159.8 208.214 160.98C208.214 162.22 208.574 163.2 209.294 163.92C210.034 164.64 211.084 165 212.444 165ZM216.344 168L217.094 164.34L218.084 160.08L218.594 155.79L220.604 145.74H224.354L219.914 168H216.344ZM233.219 168.21C231.879 168.21 230.729 167.93 229.769 167.37C228.829 166.79 228.159 165.96 227.759 164.88C227.359 163.78 227.319 162.44 227.639 160.86L229.409 151.98H233.159L231.389 160.77C231.149 162.07 231.269 163.09 231.749 163.83C232.249 164.55 233.149 164.91 234.449 164.91C235.789 164.91 236.909 164.53 237.809 163.77C238.729 163.01 239.339 161.85 239.639 160.29L241.319 151.98H245.039L241.859 168H238.289L239.189 163.44L239.789 164.88C239.029 166.02 238.069 166.86 236.909 167.4C235.769 167.94 234.539 168.21 233.219 168.21ZM253.729 168.21C252.329 168.21 251.019 168.04 249.799 167.7C248.579 167.36 247.639 166.95 246.979 166.47L248.539 163.59C249.199 164.05 250.019 164.43 250.999 164.73C251.999 165.01 253.039 165.15 254.119 165.15C255.359 165.15 256.269 164.98 256.849 164.64C257.449 164.3 257.749 163.83 257.749 163.23C257.749 162.79 257.539 162.46 257.119 162.24C256.699 162.02 256.159 161.84 255.499 161.7C254.859 161.56 254.159 161.41 253.399 161.25C252.659 161.09 251.959 160.87 251.299 160.59C250.659 160.31 250.129 159.9 249.709 159.36C249.289 158.82 249.079 158.1 249.079 157.2C249.079 156.06 249.399 155.09 250.039 154.29C250.679 153.49 251.569 152.88 252.709 152.46C253.869 152.02 255.199 151.8 256.699 151.8C257.779 151.8 258.839 151.92 259.879 152.16C260.919 152.4 261.779 152.74 262.459 153.18L261.079 156.06C260.359 155.6 259.579 155.28 258.739 155.1C257.919 154.92 257.119 154.83 256.339 154.83C255.119 154.83 254.209 155.02 253.609 155.4C253.029 155.76 252.739 156.22 252.739 156.78C252.739 157.22 252.949 157.56 253.369 157.8C253.789 158.04 254.319 158.24 254.959 158.4C255.619 158.54 256.319 158.69 257.059 158.85C257.819 158.99 258.519 159.2 259.159 159.48C259.819 159.76 260.359 160.17 260.779 160.71C261.199 161.23 261.409 161.93 261.409 162.81C261.409 163.97 261.079 164.96 260.419 165.78C259.779 166.58 258.879 167.19 257.719 167.61C256.559 168.01 255.229 168.21 253.729 168.21ZM271.209 168.21C270.169 168.21 269.269 167.99 268.509 167.55C267.769 167.09 267.229 166.45 266.889 165.63C266.569 164.79 266.519 163.8 266.739 162.66L269.589 148.44H273.339L270.489 162.63C270.369 163.37 270.449 163.97 270.729 164.43C271.009 164.89 271.539 165.12 272.319 165.12C272.679 165.12 273.039 165.07 273.399 164.97C273.779 164.85 274.119 164.69 274.419 164.49L275.079 167.25C274.519 167.61 273.899 167.86 273.219 168C272.539 168.14 271.869 168.21 271.209 168.21ZM265.659 155.1L266.259 152.1H276.909L276.309 155.1H265.659ZM279.424 168L282.604 151.98H286.174L285.274 156.54L284.944 155.22C285.684 153.92 286.624 153.03 287.764 152.55C288.904 152.05 290.294 151.8 291.934 151.8L291.244 155.37C291.084 155.33 290.934 155.31 290.794 155.31C290.654 155.29 290.494 155.28 290.314 155.28C288.854 155.28 287.644 155.67 286.684 156.45C285.724 157.21 285.084 158.43 284.764 160.11L283.174 168H279.424ZM294.381 174.03C293.581 174.03 292.801 173.9 292.041 173.64C291.261 173.38 290.641 173.04 290.181 172.62L292.041 169.89C292.381 170.19 292.761 170.43 293.181 170.61C293.621 170.81 294.121 170.91 294.681 170.91C295.301 170.91 295.851 170.74 296.331 170.4C296.831 170.08 297.331 169.52 297.831 168.72L299.241 166.53L299.601 166.14L308.421 151.98H312.171L301.131 169.41C300.391 170.57 299.681 171.49 299.001 172.17C298.321 172.85 297.611 173.33 296.871 173.61C296.151 173.89 295.321 174.03 294.381 174.03ZM298.491 168.57L294.561 151.98H298.311L301.461 165.81L298.491 168.57ZM313.338 168.21C312.678 168.21 312.118 167.99 311.658 167.55C311.218 167.11 310.998 166.55 310.998 165.87C310.998 165.09 311.258 164.46 311.778 163.98C312.298 163.48 312.908 163.23 313.608 163.23C314.268 163.23 314.818 163.45 315.258 163.89C315.698 164.31 315.918 164.87 315.918 165.57C315.918 166.09 315.798 166.55 315.558 166.95C315.318 167.35 314.998 167.66 314.598 167.88C314.218 168.1 313.798 168.21 313.338 168.21Z" fill="black" fill-opacity="0.7"/>
<rect x="0.5" y="17.5" width="488" height="299" rx="29.5" stroke="#0AB1EE"/>
<path d="M121.305 285.24C120.233 285.24 119.241 285.032 118.329 284.616C117.433 284.2 116.697 283.6 116.121 282.816L117.897 280.68C118.361 281.32 118.865 281.8 119.409 282.12C119.969 282.44 120.577 282.6 121.233 282.6C122.977 282.6 123.849 281.568 123.849 279.504V270.816H117.873V268.2H126.969V279.336C126.969 281.32 126.481 282.8 125.505 283.776C124.545 284.752 123.145 285.24 121.305 285.24ZM138.017 285.168C136.705 285.168 135.537 284.888 134.513 284.328C133.489 283.752 132.681 282.968 132.089 281.976C131.497 280.984 131.201 279.856 131.201 278.592C131.201 277.312 131.497 276.184 132.089 275.208C132.681 274.216 133.489 273.44 134.513 272.88C135.537 272.32 136.705 272.04 138.017 272.04C139.345 272.04 140.521 272.32 141.545 272.88C142.585 273.44 143.393 274.208 143.969 275.184C144.561 276.16 144.857 277.296 144.857 278.592C144.857 279.856 144.561 280.984 143.969 281.976C143.393 282.968 142.585 283.752 141.545 284.328C140.521 284.888 139.345 285.168 138.017 285.168ZM138.017 282.6C138.753 282.6 139.409 282.44 139.985 282.12C140.561 281.8 141.009 281.336 141.329 280.728C141.665 280.12 141.833 279.408 141.833 278.592C141.833 277.76 141.665 277.048 141.329 276.456C141.009 275.848 140.561 275.384 139.985 275.064C139.409 274.744 138.761 274.584 138.041 274.584C137.305 274.584 136.649 274.744 136.073 275.064C135.513 275.384 135.065 275.848 134.729 276.456C134.393 277.048 134.225 277.76 134.225 278.592C134.225 279.408 134.393 280.12 134.729 280.728C135.065 281.336 135.513 281.8 136.073 282.12C136.649 282.44 137.297 282.6 138.017 282.6ZM156.03 285.168C154.942 285.168 153.974 284.928 153.126 284.448C152.278 283.968 151.606 283.248 151.11 282.288C150.63 281.312 150.39 280.08 150.39 278.592C150.39 277.088 150.638 275.856 151.134 274.896C151.646 273.936 152.326 273.224 153.174 272.76C154.038 272.28 154.99 272.04 156.03 272.04C157.294 272.04 158.406 272.312 159.366 272.856C160.342 273.4 161.11 274.16 161.67 275.136C162.246 276.112 162.534 277.264 162.534 278.592C162.534 279.92 162.246 281.072 161.67 282.048C161.11 283.024 160.342 283.792 159.366 284.352C158.406 284.896 157.294 285.168 156.03 285.168ZM148.926 285V267.192H151.926V275.16L151.686 278.568L151.782 281.976V285H148.926ZM155.694 282.6C156.414 282.6 157.054 282.44 157.614 282.12C158.19 281.8 158.646 281.336 158.982 280.728C159.318 280.12 159.486 279.408 159.486 278.592C159.486 277.76 159.318 277.048 158.982 276.456C158.646 275.848 158.19 275.384 157.614 275.064C157.054 274.744 156.414 274.584 155.694 274.584C154.974 274.584 154.326 274.744 153.75 275.064C153.174 275.384 152.718 275.848 152.382 276.456C152.046 277.048 151.878 277.76 151.878 278.592C151.878 279.408 152.046 280.12 152.382 280.728C152.718 281.336 153.174 281.8 153.75 282.12C154.326 282.44 154.974 282.6 155.694 282.6ZM178.108 285V270.84H172.54V268.2H186.796V270.84H181.228V285H178.108ZM190.049 285V272.184H193.049V285H190.049ZM191.561 270.072C191.001 270.072 190.537 269.896 190.169 269.544C189.817 269.192 189.641 268.768 189.641 268.272C189.641 267.76 189.817 267.336 190.169 267C190.537 266.648 191.001 266.472 191.561 266.472C192.121 266.472 192.577 266.64 192.929 266.976C193.297 267.296 193.481 267.704 193.481 268.2C193.481 268.728 193.305 269.176 192.953 269.544C192.601 269.896 192.137 270.072 191.561 270.072ZM203.011 285.168C201.603 285.168 200.515 284.808 199.747 284.088C198.979 283.352 198.595 282.272 198.595 280.848V269.352H201.595V280.776C201.595 281.384 201.747 281.856 202.051 282.192C202.371 282.528 202.811 282.696 203.371 282.696C204.043 282.696 204.603 282.52 205.051 282.168L205.891 284.304C205.539 284.592 205.107 284.808 204.595 284.952C204.083 285.096 203.555 285.168 203.011 285.168ZM196.483 274.68V272.28H205.027V274.68H196.483ZM209.559 285V267.192H212.559V285H209.559ZM223.72 285.168C222.296 285.168 221.048 284.888 219.976 284.328C218.92 283.752 218.096 282.968 217.504 281.976C216.928 280.984 216.64 279.856 216.64 278.592C216.64 277.312 216.92 276.184 217.48 275.208C218.056 274.216 218.84 273.44 219.832 272.88C220.84 272.32 221.984 272.04 223.264 272.04C224.512 272.04 225.624 272.312 226.6 272.856C227.576 273.4 228.344 274.168 228.904 275.16C229.464 276.152 229.744 277.32 229.744 278.664C229.744 278.792 229.736 278.936 229.72 279.096C229.72 279.256 229.712 279.408 229.696 279.552H219.016V277.56H228.112L226.936 278.184C226.952 277.448 226.8 276.8 226.48 276.24C226.16 275.68 225.72 275.24 225.16 274.92C224.616 274.6 223.984 274.44 223.264 274.44C222.528 274.44 221.88 274.6 221.32 274.92C220.776 275.24 220.344 275.688 220.024 276.264C219.72 276.824 219.568 277.488 219.568 278.256V278.736C219.568 279.504 219.744 280.184 220.096 280.776C220.448 281.368 220.944 281.824 221.584 282.144C222.224 282.464 222.96 282.624 223.792 282.624C224.512 282.624 225.16 282.512 225.736 282.288C226.312 282.064 226.824 281.712 227.272 281.232L228.88 283.08C228.304 283.752 227.576 284.272 226.696 284.64C225.832 284.992 224.84 285.168 223.72 285.168ZM233.034 288.624L234.426 283.32L234.834 285.096C234.274 285.096 233.802 284.928 233.418 284.592C233.05 284.24 232.866 283.768 232.866 283.176C232.866 282.568 233.05 282.088 233.418 281.736C233.802 281.368 234.266 281.184 234.81 281.184C235.37 281.184 235.834 281.368 236.202 281.736C236.57 282.104 236.754 282.584 236.754 283.176C236.754 283.336 236.738 283.512 236.706 283.704C236.674 283.88 236.618 284.088 236.538 284.328C236.474 284.568 236.362 284.872 236.202 285.24L234.978 288.624H233.034ZM256.782 285.24C255.502 285.24 254.31 285.032 253.206 284.616C252.118 284.184 251.166 283.584 250.35 282.816C249.55 282.032 248.926 281.112 248.478 280.056C248.03 279 247.806 277.848 247.806 276.6C247.806 275.352 248.03 274.2 248.478 273.144C248.926 272.088 249.558 271.176 250.374 270.408C251.19 269.624 252.142 269.024 253.23 268.608C254.318 268.176 255.51 267.96 256.806 267.96C258.182 267.96 259.438 268.2 260.574 268.68C261.71 269.144 262.67 269.84 263.454 270.768L261.438 272.664C260.83 272.008 260.15 271.52 259.398 271.2C258.646 270.864 257.83 270.696 256.95 270.696C256.07 270.696 255.262 270.84 254.526 271.128C253.806 271.416 253.174 271.824 252.63 272.352C252.102 272.88 251.686 273.504 251.382 274.224C251.094 274.944 250.95 275.736 250.95 276.6C250.95 277.464 251.094 278.256 251.382 278.976C251.686 279.696 252.102 280.32 252.63 280.848C253.174 281.376 253.806 281.784 254.526 282.072C255.262 282.36 256.07 282.504 256.95 282.504C257.83 282.504 258.646 282.344 259.398 282.024C260.15 281.688 260.83 281.184 261.438 280.512L263.454 282.432C262.67 283.344 261.71 284.04 260.574 284.52C259.438 285 258.174 285.24 256.782 285.24ZM272.623 285.168C271.311 285.168 270.143 284.888 269.119 284.328C268.095 283.752 267.287 282.968 266.695 281.976C266.103 280.984 265.807 279.856 265.807 278.592C265.807 277.312 266.103 276.184 266.695 275.208C267.287 274.216 268.095 273.44 269.119 272.88C270.143 272.32 271.311 272.04 272.623 272.04C273.951 272.04 275.127 272.32 276.151 272.88C277.191 273.44 277.999 274.208 278.575 275.184C279.167 276.16 279.463 277.296 279.463 278.592C279.463 279.856 279.167 280.984 278.575 281.976C277.999 282.968 277.191 283.752 276.151 284.328C275.127 284.888 273.951 285.168 272.623 285.168ZM272.623 282.6C273.359 282.6 274.015 282.44 274.591 282.12C275.167 281.8 275.615 281.336 275.935 280.728C276.271 280.12 276.439 279.408 276.439 278.592C276.439 277.76 276.271 277.048 275.935 276.456C275.615 275.848 275.167 275.384 274.591 275.064C274.015 274.744 273.367 274.584 272.647 274.584C271.911 274.584 271.255 274.744 270.679 275.064C270.119 275.384 269.671 275.848 269.335 276.456C268.999 277.048 268.831 277.76 268.831 278.592C268.831 279.408 268.999 280.12 269.335 280.728C269.671 281.336 270.119 281.8 270.679 282.12C271.255 282.44 271.903 282.6 272.623 282.6ZM299.708 272.04C300.732 272.04 301.636 272.24 302.42 272.64C303.22 273.04 303.844 273.656 304.292 274.488C304.74 275.304 304.964 276.36 304.964 277.656V285H301.964V278.04C301.964 276.904 301.716 276.056 301.22 275.496C300.724 274.936 300.012 274.656 299.084 274.656C298.428 274.656 297.844 274.8 297.332 275.088C296.836 275.376 296.444 275.8 296.156 276.36C295.884 276.92 295.748 277.632 295.748 278.496V285H292.748V278.04C292.748 276.904 292.5 276.056 292.004 275.496C291.508 274.936 290.796 274.656 289.868 274.656C289.212 274.656 288.628 274.8 288.116 275.088C287.62 275.376 287.228 275.8 286.94 276.36C286.668 276.92 286.532 277.632 286.532 278.496V285H283.532V272.184H286.388V275.592L285.884 274.584C286.316 273.752 286.94 273.12 287.756 272.688C288.588 272.256 289.532 272.04 290.588 272.04C291.788 272.04 292.828 272.336 293.708 272.928C294.604 273.52 295.196 274.416 295.484 275.616L294.308 275.208C294.724 274.248 295.412 273.48 296.372 272.904C297.332 272.328 298.444 272.04 299.708 272.04ZM317.102 285.168C316.062 285.168 315.11 284.928 314.246 284.448C313.398 283.968 312.718 283.248 312.206 282.288C311.71 281.312 311.462 280.08 311.462 278.592C311.462 277.088 311.702 275.856 312.182 274.896C312.678 273.936 313.35 273.224 314.198 272.76C315.046 272.28 316.014 272.04 317.102 272.04C318.366 272.04 319.478 272.312 320.438 272.856C321.414 273.4 322.182 274.16 322.742 275.136C323.318 276.112 323.606 277.264 323.606 278.592C323.606 279.92 323.318 281.08 322.742 282.072C322.182 283.048 321.414 283.808 320.438 284.352C319.478 284.896 318.366 285.168 317.102 285.168ZM309.998 289.656V272.184H312.854V275.208L312.758 278.616L312.998 282.024V289.656H309.998ZM316.766 282.6C317.486 282.6 318.126 282.44 318.686 282.12C319.262 281.8 319.718 281.336 320.054 280.728C320.39 280.12 320.558 279.408 320.558 278.592C320.558 277.76 320.39 277.048 320.054 276.456C319.718 275.848 319.262 275.384 318.686 275.064C318.126 274.744 317.486 274.584 316.766 274.584C316.046 274.584 315.398 274.744 314.822 275.064C314.246 275.384 313.79 275.848 313.454 276.456C313.118 277.048 312.95 277.76 312.95 278.592C312.95 279.408 313.118 280.12 313.454 280.728C313.79 281.336 314.246 281.8 314.822 282.12C315.398 282.44 316.046 282.6 316.766 282.6ZM335.383 285V282.408L335.215 281.856V277.32C335.215 276.44 334.951 275.76 334.423 275.28C333.895 274.784 333.095 274.536 332.023 274.536C331.303 274.536 330.591 274.648 329.887 274.872C329.199 275.096 328.615 275.408 328.135 275.808L326.959 273.624C327.647 273.096 328.463 272.704 329.407 272.448C330.367 272.176 331.359 272.04 332.383 272.04C334.239 272.04 335.671 272.488 336.679 273.384C337.703 274.264 338.215 275.632 338.215 277.488V285H335.383ZM331.351 285.168C330.391 285.168 329.551 285.008 328.831 284.688C328.111 284.352 327.551 283.896 327.151 283.32C326.767 282.728 326.575 282.064 326.575 281.328C326.575 280.608 326.743 279.96 327.079 279.384C327.431 278.808 327.999 278.352 328.783 278.016C329.567 277.68 330.607 277.512 331.903 277.512H335.623V279.504H332.119C331.095 279.504 330.407 279.672 330.055 280.008C329.703 280.328 329.527 280.728 329.527 281.208C329.527 281.752 329.743 282.184 330.175 282.504C330.607 282.824 331.207 282.984 331.975 282.984C332.711 282.984 333.367 282.816 333.943 282.48C334.535 282.144 334.959 281.648 335.215 280.992L335.719 282.792C335.431 283.544 334.911 284.128 334.159 284.544C333.423 284.96 332.487 285.168 331.351 285.168ZM350.537 272.04C351.561 272.04 352.473 272.24 353.273 272.64C354.089 273.04 354.729 273.656 355.193 274.488C355.657 275.304 355.889 276.36 355.889 277.656V285H352.889V278.04C352.889 276.904 352.617 276.056 352.073 275.496C351.545 274.936 350.801 274.656 349.841 274.656C349.137 274.656 348.513 274.8 347.969 275.088C347.425 275.376 347.001 275.808 346.697 276.384C346.409 276.944 346.265 277.656 346.265 278.52V285H343.265V272.184H346.121V275.64L345.617 274.584C346.065 273.768 346.713 273.144 347.561 272.712C348.425 272.264 349.417 272.04 350.537 272.04ZM361.716 289.824C361.092 289.824 360.468 289.72 359.844 289.512C359.22 289.304 358.7 289.016 358.284 288.648L359.484 286.44C359.788 286.712 360.132 286.928 360.516 287.088C360.9 287.248 361.292 287.328 361.692 287.328C362.236 287.328 362.676 287.192 363.012 286.92C363.348 286.648 363.66 286.192 363.948 285.552L364.692 283.872L364.932 283.512L369.78 272.184H372.66L366.66 286.032C366.26 286.992 365.812 287.752 365.316 288.312C364.836 288.872 364.292 289.264 363.684 289.488C363.092 289.712 362.436 289.824 361.716 289.824ZM364.356 285.456L358.572 272.184H361.692L366.396 283.248L364.356 285.456Z" fill="black" fill-opacity="0.5"/>
<path d="M206.256 243V226.2H208.824L219.36 239.136H218.088V226.2H221.184V243H218.616L208.08 230.064H209.352V243H206.256ZM224.51 243L232.07 226.2H235.142L242.726 243H239.462L232.958 227.856H234.206L227.726 243H224.51ZM227.99 239.112L228.83 236.664H237.902L238.742 239.112H227.99ZM246.062 243V226.2H248.63L255.974 238.464H254.63L261.854 226.2H264.422L264.446 243H261.494L261.47 230.832H262.094L255.95 241.08H254.558L248.318 230.832H249.038V243H246.062ZM273.064 233.184H281.416V235.752H273.064V233.184ZM273.304 240.384H282.784V243H270.184V226.2H282.448V228.816H273.304V240.384Z" fill="black" fill-opacity="0.77"/>
<path d="M36.3045 0.0239944L23.3765 28.44L21.7125 18.456C24.6138 18.456 27.0032 19.3947 28.8805 21.272C30.7578 23.1493 31.6965 25.496 31.6965 28.312C31.6965 31.7253 30.5872 34.4987 28.3685 36.632C26.2352 38.68 23.6325 39.704 20.5605 39.704C17.7445 39.704 15.3978 38.7653 13.5205 36.888C11.6432 35.0107 10.7045 32.6213 10.7045 29.72C10.7045 28.184 10.9605 26.6907 11.4725 25.24C12.0698 23.7893 13.0085 22.04 14.2885 19.992L26.0645 0.0239944H36.3045ZM63.4405 0.0239944L50.5125 28.44L48.8485 18.456C51.7498 18.456 54.1392 19.3947 56.0165 21.272C57.8938 23.1493 58.8325 25.496 58.8325 28.312C58.8325 31.7253 57.7232 34.4987 55.5045 36.632C53.3712 38.68 50.7685 39.704 47.6965 39.704C44.8805 39.704 42.5338 38.7653 40.6565 36.888C38.7792 35.0107 37.8405 32.6213 37.8405 29.72C37.8405 28.184 38.0965 26.6907 38.6085 25.24C39.2058 23.7893 40.1445 22.04 41.4245 19.992L53.2005 0.0239944H63.4405Z" fill="white"/>
<path d="M36.3045 0.0239944L39.0352 1.26633L40.9653 -2.97601H36.3045V0.0239944ZM23.3765 28.44L20.4173 28.9332L22.0342 38.6347L26.1072 29.6823L23.3765 28.44ZM21.7125 18.456V15.456H18.1711L18.7533 18.9492L21.7125 18.456ZM28.8805 21.272L26.7592 23.3933L28.8805 21.272ZM28.3685 36.632L30.4461 38.7962L30.4478 38.7945L28.3685 36.632ZM13.5205 36.888L15.6418 34.7667L15.6418 34.7667L13.5205 36.888ZM11.4725 25.24L8.69847 24.0977L8.66915 24.1689L8.64353 24.2415L11.4725 25.24ZM14.2885 19.992L16.8325 21.582L16.853 21.5492L16.8726 21.516L14.2885 19.992ZM26.0645 0.0239944V-2.97601H24.3509L23.4804 -1.49996L26.0645 0.0239944ZM63.4405 0.0239944L66.1712 1.26633L68.1013 -2.97601H63.4405V0.0239944ZM50.5125 28.44L47.5533 28.9332L49.1702 38.6347L53.2432 29.6823L50.5125 28.44ZM48.8485 18.456V15.456H45.3071L45.8893 18.9492L48.8485 18.456ZM56.0165 21.272L53.8952 23.3933H53.8952L56.0165 21.272ZM55.5045 36.632L57.5821 38.7962L57.5838 38.7945L55.5045 36.632ZM38.6085 25.24L35.8345 24.0977L35.8052 24.1689L35.7795 24.2415L38.6085 25.24ZM41.4245 19.992L43.9685 21.582L43.989 21.5492L44.0086 21.516L41.4245 19.992ZM53.2005 0.0239944V-2.97601H51.4869L50.6164 -1.49996L53.2005 0.0239944ZM33.5738 -1.21834L20.6458 27.1977L26.1072 29.6823L39.0352 1.26633L33.5738 -1.21834ZM26.3357 27.9468L24.6717 17.9628L18.7533 18.9492L20.4173 28.9332L26.3357 27.9468ZM21.7125 21.456C23.8995 21.456 25.4994 22.1336 26.7592 23.3933L31.0018 19.1507C28.5069 16.6558 25.3282 15.456 21.7125 15.456V21.456ZM26.7592 23.3933C28.0371 24.6713 28.6965 26.2381 28.6965 28.312H34.6965C34.6965 24.7539 33.4785 21.6274 31.0018 19.1507L26.7592 23.3933ZM28.6965 28.312C28.6965 31.0074 27.8525 32.9663 26.2892 34.4695L30.4478 38.7945C33.3219 36.031 34.6965 32.4433 34.6965 28.312H28.6965ZM26.2909 34.4678C24.7398 35.9569 22.8914 36.704 20.5605 36.704V42.704C24.3736 42.704 27.7305 41.4031 30.4461 38.7962L26.2909 34.4678ZM20.5605 36.704C18.4866 36.704 16.9198 36.0446 15.6418 34.7667L11.3992 39.0093C13.8759 41.486 17.0024 42.704 20.5605 42.704V36.704ZM15.6418 34.7667C14.3821 33.5069 13.7045 31.907 13.7045 29.72H7.7045C7.7045 33.3357 8.90426 36.5144 11.3992 39.0093L15.6418 34.7667ZM13.7045 29.72C13.7045 28.5246 13.9025 27.3689 14.3015 26.2385L8.64353 24.2415C8.01851 26.0124 7.7045 27.8434 7.7045 29.72H13.7045ZM14.2465 26.3822C14.7554 25.1463 15.5995 23.5548 16.8325 21.582L11.7445 18.402C10.4175 20.5252 9.38423 22.4323 8.69847 24.0977L14.2465 26.3822ZM16.8726 21.516L28.6486 1.54795L23.4804 -1.49996L11.7044 18.468L16.8726 21.516ZM26.0645 3.02399H36.3045V-2.97601H26.0645V3.02399ZM60.7098 -1.21834L47.7818 27.1977L53.2432 29.6823L66.1712 1.26633L60.7098 -1.21834ZM53.4717 27.9468L51.8077 17.9628L45.8893 18.9492L47.5533 28.9332L53.4717 27.9468ZM48.8485 21.456C51.0355 21.456 52.6354 22.1336 53.8952 23.3933L58.1378 19.1507C55.6429 16.6558 52.4642 15.456 48.8485 15.456V21.456ZM53.8952 23.3933C55.1731 24.6713 55.8325 26.2381 55.8325 28.312H61.8325C61.8325 24.7539 60.6145 21.6274 58.1378 19.1507L53.8952 23.3933ZM55.8325 28.312C55.8325 31.0074 54.9885 32.9663 53.4252 34.4695L57.5838 38.7945C60.4579 36.031 61.8325 32.4433 61.8325 28.312H55.8325ZM53.4269 34.4678C51.8758 35.9569 50.0274 36.704 47.6965 36.704V42.704C51.5096 42.704 54.8665 41.4031 57.5821 38.7962L53.4269 34.4678ZM47.6965 36.704C45.6226 36.704 44.0558 36.0446 42.7778 34.7667L38.5352 39.0093C41.0119 41.486 44.1384 42.704 47.6965 42.704V36.704ZM42.7778 34.7667C41.5181 33.5069 40.8405 31.907 40.8405 29.72H34.8405C34.8405 33.3357 36.0403 36.5144 38.5352 39.0093L42.7778 34.7667ZM40.8405 29.72C40.8405 28.5246 41.0385 27.3689 41.4375 26.2385L35.7795 24.2415C35.1545 26.0124 34.8405 27.8434 34.8405 29.72H40.8405ZM41.3825 26.3822C41.8914 25.1463 42.7355 23.5548 43.9685 21.582L38.8805 18.402C37.5535 20.5252 36.5202 22.4323 35.8345 24.0977L41.3825 26.3822ZM44.0086 21.516L55.7846 1.54795L50.6164 -1.49996L38.8404 18.468L44.0086 21.516ZM53.2005 3.02399H63.4405V-2.97601H53.2005V3.02399Z" fill="#2F528E"/>
<path d="M36.3045 0.0239944L39.0352 1.26633L40.9653 -2.97601H36.3045V0.0239944ZM23.3765 28.44L20.4173 28.9332L22.0342 38.6347L26.1072 29.6823L23.3765 28.44ZM21.7125 18.456V15.456H18.1711L18.7533 18.9492L21.7125 18.456ZM28.8805 21.272L26.7592 23.3933L28.8805 21.272ZM28.3685 36.632L30.4461 38.7962L30.4478 38.7945L28.3685 36.632ZM13.5205 36.888L15.6418 34.7667L15.6418 34.7667L13.5205 36.888ZM11.4725 25.24L8.69847 24.0977L8.66915 24.1689L8.64353 24.2415L11.4725 25.24ZM14.2885 19.992L16.8325 21.582L16.853 21.5492L16.8726 21.516L14.2885 19.992ZM26.0645 0.0239944V-2.97601H24.3509L23.4804 -1.49996L26.0645 0.0239944ZM63.4405 0.0239944L66.1712 1.26633L68.1013 -2.97601H63.4405V0.0239944ZM50.5125 28.44L47.5533 28.9332L49.1702 38.6347L53.2432 29.6823L50.5125 28.44ZM48.8485 18.456V15.456H45.3071L45.8893 18.9492L48.8485 18.456ZM56.0165 21.272L53.8952 23.3933H53.8952L56.0165 21.272ZM55.5045 36.632L57.5821 38.7962L57.5838 38.7945L55.5045 36.632ZM38.6085 25.24L35.8345 24.0977L35.8052 24.1689L35.7795 24.2415L38.6085 25.24ZM41.4245 19.992L43.9685 21.582L43.989 21.5492L44.0086 21.516L41.4245 19.992ZM53.2005 0.0239944V-2.97601H51.4869L50.6164 -1.49996L53.2005 0.0239944ZM33.5738 -1.21834L20.6458 27.1977L26.1072 29.6823L39.0352 1.26633L33.5738 -1.21834ZM26.3357 27.9468L24.6717 17.9628L18.7533 18.9492L20.4173 28.9332L26.3357 27.9468ZM21.7125 21.456C23.8995 21.456 25.4994 22.1336 26.7592 23.3933L31.0018 19.1507C28.5069 16.6558 25.3282 15.456 21.7125 15.456V21.456ZM26.7592 23.3933C28.0371 24.6713 28.6965 26.2381 28.6965 28.312H34.6965C34.6965 24.7539 33.4785 21.6274 31.0018 19.1507L26.7592 23.3933ZM28.6965 28.312C28.6965 31.0074 27.8525 32.9663 26.2892 34.4695L30.4478 38.7945C33.3219 36.031 34.6965 32.4433 34.6965 28.312H28.6965ZM26.2909 34.4678C24.7398 35.9569 22.8914 36.704 20.5605 36.704V42.704C24.3736 42.704 27.7305 41.4031 30.4461 38.7962L26.2909 34.4678ZM20.5605 36.704C18.4866 36.704 16.9198 36.0446 15.6418 34.7667L11.3992 39.0093C13.8759 41.486 17.0024 42.704 20.5605 42.704V36.704ZM15.6418 34.7667C14.3821 33.5069 13.7045 31.907 13.7045 29.72H7.7045C7.7045 33.3357 8.90426 36.5144 11.3992 39.0093L15.6418 34.7667ZM13.7045 29.72C13.7045 28.5246 13.9025 27.3689 14.3015 26.2385L8.64353 24.2415C8.01851 26.0124 7.7045 27.8434 7.7045 29.72H13.7045ZM14.2465 26.3822C14.7554 25.1463 15.5995 23.5548 16.8325 21.582L11.7445 18.402C10.4175 20.5252 9.38423 22.4323 8.69847 24.0977L14.2465 26.3822ZM16.8726 21.516L28.6486 1.54795L23.4804 -1.49996L11.7044 18.468L16.8726 21.516ZM26.0645 3.02399H36.3045V-2.97601H26.0645V3.02399ZM60.7098 -1.21834L47.7818 27.1977L53.2432 29.6823L66.1712 1.26633L60.7098 -1.21834ZM53.4717 27.9468L51.8077 17.9628L45.8893 18.9492L47.5533 28.9332L53.4717 27.9468ZM48.8485 21.456C51.0355 21.456 52.6354 22.1336 53.8952 23.3933L58.1378 19.1507C55.6429 16.6558 52.4642 15.456 48.8485 15.456V21.456ZM53.8952 23.3933C55.1731 24.6713 55.8325 26.2381 55.8325 28.312H61.8325C61.8325 24.7539 60.6145 21.6274 58.1378 19.1507L53.8952 23.3933ZM55.8325 28.312C55.8325 31.0074 54.9885 32.9663 53.4252 34.4695L57.5838 38.7945C60.4579 36.031 61.8325 32.4433 61.8325 28.312H55.8325ZM53.4269 34.4678C51.8758 35.9569 50.0274 36.704 47.6965 36.704V42.704C51.5096 42.704 54.8665 41.4031 57.5821 38.7962L53.4269 34.4678ZM47.6965 36.704C45.6226 36.704 44.0558 36.0446 42.7778 34.7667L38.5352 39.0093C41.0119 41.486 44.1384 42.704 47.6965 42.704V36.704ZM42.7778 34.7667C41.5181 33.5069 40.8405 31.907 40.8405 29.72H34.8405C34.8405 33.3357 36.0403 36.5144 38.5352 39.0093L42.7778 34.7667ZM40.8405 29.72C40.8405 28.5246 41.0385 27.3689 41.4375 26.2385L35.7795 24.2415C35.1545 26.0124 34.8405 27.8434 34.8405 29.72H40.8405ZM41.3825 26.3822C41.8914 25.1463 42.7355 23.5548 43.9685 21.582L38.8805 18.402C37.5535 20.5252 36.5202 22.4323 35.8345 24.0977L41.3825 26.3822ZM44.0086 21.516L55.7846 1.54795L50.6164 -1.49996L38.8404 18.468L44.0086 21.516ZM53.2005 3.02399H63.4405V-2.97601H53.2005V3.02399Z" fill="#2F528E"/>
<path d="M36.3045 0.0239944L39.0352 1.26633L40.9653 -2.97601H36.3045V0.0239944ZM23.3765 28.44L20.4173 28.9332L22.0342 38.6347L26.1072 29.6823L23.3765 28.44ZM21.7125 18.456V15.456H18.1711L18.7533 18.9492L21.7125 18.456ZM28.8805 21.272L26.7592 23.3933L28.8805 21.272ZM28.3685 36.632L30.4461 38.7962L30.4478 38.7945L28.3685 36.632ZM13.5205 36.888L15.6418 34.7667L15.6418 34.7667L13.5205 36.888ZM11.4725 25.24L8.69847 24.0977L8.66915 24.1689L8.64353 24.2415L11.4725 25.24ZM14.2885 19.992L16.8325 21.582L16.853 21.5492L16.8726 21.516L14.2885 19.992ZM26.0645 0.0239944V-2.97601H24.3509L23.4804 -1.49996L26.0645 0.0239944ZM63.4405 0.0239944L66.1712 1.26633L68.1013 -2.97601H63.4405V0.0239944ZM50.5125 28.44L47.5533 28.9332L49.1702 38.6347L53.2432 29.6823L50.5125 28.44ZM48.8485 18.456V15.456H45.3071L45.8893 18.9492L48.8485 18.456ZM56.0165 21.272L53.8952 23.3933H53.8952L56.0165 21.272ZM55.5045 36.632L57.5821 38.7962L57.5838 38.7945L55.5045 36.632ZM38.6085 25.24L35.8345 24.0977L35.8052 24.1689L35.7795 24.2415L38.6085 25.24ZM41.4245 19.992L43.9685 21.582L43.989 21.5492L44.0086 21.516L41.4245 19.992ZM53.2005 0.0239944V-2.97601H51.4869L50.6164 -1.49996L53.2005 0.0239944ZM33.5738 -1.21834L20.6458 27.1977L26.1072 29.6823L39.0352 1.26633L33.5738 -1.21834ZM26.3357 27.9468L24.6717 17.9628L18.7533 18.9492L20.4173 28.9332L26.3357 27.9468ZM21.7125 21.456C23.8995 21.456 25.4994 22.1336 26.7592 23.3933L31.0018 19.1507C28.5069 16.6558 25.3282 15.456 21.7125 15.456V21.456ZM26.7592 23.3933C28.0371 24.6713 28.6965 26.2381 28.6965 28.312H34.6965C34.6965 24.7539 33.4785 21.6274 31.0018 19.1507L26.7592 23.3933ZM28.6965 28.312C28.6965 31.0074 27.8525 32.9663 26.2892 34.4695L30.4478 38.7945C33.3219 36.031 34.6965 32.4433 34.6965 28.312H28.6965ZM26.2909 34.4678C24.7398 35.9569 22.8914 36.704 20.5605 36.704V42.704C24.3736 42.704 27.7305 41.4031 30.4461 38.7962L26.2909 34.4678ZM20.5605 36.704C18.4866 36.704 16.9198 36.0446 15.6418 34.7667L11.3992 39.0093C13.8759 41.486 17.0024 42.704 20.5605 42.704V36.704ZM15.6418 34.7667C14.3821 33.5069 13.7045 31.907 13.7045 29.72H7.7045C7.7045 33.3357 8.90426 36.5144 11.3992 39.0093L15.6418 34.7667ZM13.7045 29.72C13.7045 28.5246 13.9025 27.3689 14.3015 26.2385L8.64353 24.2415C8.01851 26.0124 7.7045 27.8434 7.7045 29.72H13.7045ZM14.2465 26.3822C14.7554 25.1463 15.5995 23.5548 16.8325 21.582L11.7445 18.402C10.4175 20.5252 9.38423 22.4323 8.69847 24.0977L14.2465 26.3822ZM16.8726 21.516L28.6486 1.54795L23.4804 -1.49996L11.7044 18.468L16.8726 21.516ZM26.0645 3.02399H36.3045V-2.97601H26.0645V3.02399ZM60.7098 -1.21834L47.7818 27.1977L53.2432 29.6823L66.1712 1.26633L60.7098 -1.21834ZM53.4717 27.9468L51.8077 17.9628L45.8893 18.9492L47.5533 28.9332L53.4717 27.9468ZM48.8485 21.456C51.0355 21.456 52.6354 22.1336 53.8952 23.3933L58.1378 19.1507C55.6429 16.6558 52.4642 15.456 48.8485 15.456V21.456ZM53.8952 23.3933C55.1731 24.6713 55.8325 26.2381 55.8325 28.312H61.8325C61.8325 24.7539 60.6145 21.6274 58.1378 19.1507L53.8952 23.3933ZM55.8325 28.312C55.8325 31.0074 54.9885 32.9663 53.4252 34.4695L57.5838 38.7945C60.4579 36.031 61.8325 32.4433 61.8325 28.312H55.8325ZM53.4269 34.4678C51.8758 35.9569 50.0274 36.704 47.6965 36.704V42.704C51.5096 42.704 54.8665 41.4031 57.5821 38.7962L53.4269 34.4678ZM47.6965 36.704C45.6226 36.704 44.0558 36.0446 42.7778 34.7667L38.5352 39.0093C41.0119 41.486 44.1384 42.704 47.6965 42.704V36.704ZM42.7778 34.7667C41.5181 33.5069 40.8405 31.907 40.8405 29.72H34.8405C34.8405 33.3357 36.0403 36.5144 38.5352 39.0093L42.7778 34.7667ZM40.8405 29.72C40.8405 28.5246 41.0385 27.3689 41.4375 26.2385L35.7795 24.2415C35.1545 26.0124 34.8405 27.8434 34.8405 29.72H40.8405ZM41.3825 26.3822C41.8914 25.1463 42.7355 23.5548 43.9685 21.582L38.8805 18.402C37.5535 20.5252 36.5202 22.4323 35.8345 24.0977L41.3825 26.3822ZM44.0086 21.516L55.7846 1.54795L50.6164 -1.49996L38.8404 18.468L44.0086 21.516ZM53.2005 3.02399H63.4405V-2.97601H53.2005V3.02399Z" fill="#2F528E"/>
<path d="M474.673 242.856L484.369 221.544L485.521 229.032C483.409 229.032 481.617 228.328 480.145 226.92C478.737 225.512 478.033 223.72 478.033 221.544C478.033 219.048 478.865 217.032 480.529 215.496C482.257 213.896 484.241 213.096 486.481 213.096C488.593 213.096 490.321 213.8 491.665 215.208C493.073 216.552 493.777 218.344 493.777 220.584C493.777 221.736 493.553 222.856 493.105 223.944C492.721 225.032 492.081 226.376 491.185 227.976L482.353 242.856H474.673ZM495.025 242.856L504.721 221.544L505.873 229.032C503.761 229.032 501.969 228.328 500.497 226.92C499.089 225.512 498.385 223.72 498.385 221.544C498.385 219.048 499.217 217.032 500.881 215.496C502.609 213.896 504.593 213.096 506.833 213.096C508.945 213.096 510.673 213.8 512.017 215.208C513.425 216.552 514.129 218.344 514.129 220.584C514.129 221.736 513.905 222.856 513.457 223.944C513.073 225.032 512.433 226.376 511.537 227.976L502.705 242.856H495.025Z" fill="white"/>
<path d="M474.673 242.856L471.943 241.614L470.013 245.856H474.673V242.856ZM484.369 221.544L487.334 221.088L485.805 211.145L481.639 220.302L484.369 221.544ZM485.521 229.032V232.032H489.018L488.486 228.576L485.521 229.032ZM480.145 226.92L478.024 229.041L478.048 229.065L478.072 229.088L480.145 226.92ZM480.529 215.496L482.564 217.7L482.568 217.697L480.529 215.496ZM491.665 215.208L489.495 217.279L489.543 217.33L489.594 217.378L491.665 215.208ZM493.105 223.944L490.331 222.802L490.302 222.873L490.276 222.946L493.105 223.944ZM491.185 227.976L493.765 229.507L493.784 229.475L493.803 229.442L491.185 227.976ZM482.353 242.856V245.856H484.061L484.933 244.387L482.353 242.856ZM495.025 242.856L492.295 241.614L490.365 245.856H495.025V242.856ZM504.721 221.544L507.686 221.088L506.157 211.145L501.991 220.302L504.721 221.544ZM505.873 229.032V232.032H509.37L508.838 228.576L505.873 229.032ZM500.497 226.92L498.376 229.041L498.4 229.065L498.424 229.088L500.497 226.92ZM500.881 215.496L502.916 217.7L502.92 217.697L500.881 215.496ZM512.017 215.208L509.847 217.279L509.895 217.33L509.946 217.378L512.017 215.208ZM513.457 223.944L510.683 222.802L510.654 222.873L510.628 222.946L513.457 223.944ZM511.537 227.976L514.117 229.507L514.136 229.475L514.155 229.442L511.537 227.976ZM502.705 242.856V245.856H504.413L505.285 244.387L502.705 242.856ZM477.404 244.098L487.1 222.786L481.639 220.302L471.943 241.614L477.404 244.098ZM481.404 222L482.556 229.488L488.486 228.576L487.334 221.088L481.404 222ZM485.521 226.032C484.15 226.032 483.11 225.605 482.219 224.752L478.072 229.088C480.124 231.051 482.668 232.032 485.521 232.032V226.032ZM482.267 224.799C481.476 224.008 481.033 223.006 481.033 221.544H475.033C475.033 224.434 475.998 227.016 478.024 229.041L482.267 224.799ZM481.033 221.544C481.033 219.79 481.582 218.607 482.564 217.7L478.495 213.292C476.149 215.457 475.033 218.306 475.033 221.544H481.033ZM482.568 217.697C483.772 216.582 485.039 216.096 486.481 216.096V210.096C483.444 210.096 480.742 211.21 478.491 213.295L482.568 217.697ZM486.481 216.096C487.851 216.096 488.769 216.518 489.495 217.279L493.835 213.137C491.874 211.082 489.336 210.096 486.481 210.096V216.096ZM489.594 217.378C490.318 218.069 490.777 219.029 490.777 220.584H496.777C496.777 217.659 495.829 215.035 493.737 213.038L489.594 217.378ZM490.777 220.584C490.777 221.336 490.633 222.068 490.331 222.802L495.879 225.086C496.473 223.644 496.777 222.136 496.777 220.584H490.777ZM490.276 222.946C489.973 223.806 489.423 224.983 488.568 226.51L493.803 229.442C494.74 227.769 495.47 226.258 495.934 224.942L490.276 222.946ZM488.606 226.445L479.774 241.325L484.933 244.387L493.765 229.507L488.606 226.445ZM482.353 239.856H474.673V245.856H482.353V239.856ZM497.756 244.098L507.452 222.786L501.991 220.302L492.295 241.614L497.756 244.098ZM501.756 222L502.908 229.488L508.838 228.576L507.686 221.088L501.756 222ZM505.873 226.032C504.502 226.032 503.462 225.605 502.571 224.752L498.424 229.088C500.476 231.051 503.02 232.032 505.873 232.032V226.032ZM502.619 224.799C501.828 224.008 501.385 223.006 501.385 221.544H495.385C495.385 224.434 496.35 227.016 498.376 229.041L502.619 224.799ZM501.385 221.544C501.385 219.79 501.934 218.607 502.916 217.7L498.847 213.292C496.501 215.457 495.385 218.306 495.385 221.544H501.385ZM502.92 217.697C504.124 216.582 505.391 216.096 506.833 216.096V210.096C503.796 210.096 501.094 211.21 498.843 213.295L502.92 217.697ZM506.833 216.096C508.203 216.096 509.121 216.518 509.847 217.279L514.187 213.137C512.226 211.082 509.688 210.096 506.833 210.096V216.096ZM509.946 217.378C510.67 218.069 511.129 219.029 511.129 220.584H517.129C517.129 217.659 516.181 215.035 514.089 213.038L509.946 217.378ZM511.129 220.584C511.129 221.336 510.985 222.068 510.683 222.802L516.231 225.086C516.825 223.644 517.129 222.136 517.129 220.584H511.129ZM510.628 222.946C510.325 223.806 509.775 224.983 508.92 226.51L514.155 229.442C515.092 227.769 515.822 226.258 516.286 224.942L510.628 222.946ZM508.958 226.445L500.126 241.325L505.285 244.387L514.117 229.507L508.958 226.445ZM502.705 239.856H495.025V245.856H502.705V239.856Z" fill="#2F528E"/>
<path d="M474.673 242.856L471.943 241.614L470.013 245.856H474.673V242.856ZM484.369 221.544L487.334 221.088L485.805 211.145L481.639 220.302L484.369 221.544ZM485.521 229.032V232.032H489.018L488.486 228.576L485.521 229.032ZM480.145 226.92L478.024 229.041L478.048 229.065L478.072 229.088L480.145 226.92ZM480.529 215.496L482.564 217.7L482.568 217.697L480.529 215.496ZM491.665 215.208L489.495 217.279L489.543 217.33L489.594 217.378L491.665 215.208ZM493.105 223.944L490.331 222.802L490.302 222.873L490.276 222.946L493.105 223.944ZM491.185 227.976L493.765 229.507L493.784 229.475L493.803 229.442L491.185 227.976ZM482.353 242.856V245.856H484.061L484.933 244.387L482.353 242.856ZM495.025 242.856L492.295 241.614L490.365 245.856H495.025V242.856ZM504.721 221.544L507.686 221.088L506.157 211.145L501.991 220.302L504.721 221.544ZM505.873 229.032V232.032H509.37L508.838 228.576L505.873 229.032ZM500.497 226.92L498.376 229.041L498.4 229.065L498.424 229.088L500.497 226.92ZM500.881 215.496L502.916 217.7L502.92 217.697L500.881 215.496ZM512.017 215.208L509.847 217.279L509.895 217.33L509.946 217.378L512.017 215.208ZM513.457 223.944L510.683 222.802L510.654 222.873L510.628 222.946L513.457 223.944ZM511.537 227.976L514.117 229.507L514.136 229.475L514.155 229.442L511.537 227.976ZM502.705 242.856V245.856H504.413L505.285 244.387L502.705 242.856ZM477.404 244.098L487.1 222.786L481.639 220.302L471.943 241.614L477.404 244.098ZM481.404 222L482.556 229.488L488.486 228.576L487.334 221.088L481.404 222ZM485.521 226.032C484.15 226.032 483.11 225.605 482.219 224.752L478.072 229.088C480.124 231.051 482.668 232.032 485.521 232.032V226.032ZM482.267 224.799C481.476 224.008 481.033 223.006 481.033 221.544H475.033C475.033 224.434 475.998 227.016 478.024 229.041L482.267 224.799ZM481.033 221.544C481.033 219.79 481.582 218.607 482.564 217.7L478.495 213.292C476.149 215.457 475.033 218.306 475.033 221.544H481.033ZM482.568 217.697C483.772 216.582 485.039 216.096 486.481 216.096V210.096C483.444 210.096 480.742 211.21 478.491 213.295L482.568 217.697ZM486.481 216.096C487.851 216.096 488.769 216.518 489.495 217.279L493.835 213.137C491.874 211.082 489.336 210.096 486.481 210.096V216.096ZM489.594 217.378C490.318 218.069 490.777 219.029 490.777 220.584H496.777C496.777 217.659 495.829 215.035 493.737 213.038L489.594 217.378ZM490.777 220.584C490.777 221.336 490.633 222.068 490.331 222.802L495.879 225.086C496.473 223.644 496.777 222.136 496.777 220.584H490.777ZM490.276 222.946C489.973 223.806 489.423 224.983 488.568 226.51L493.803 229.442C494.74 227.769 495.47 226.258 495.934 224.942L490.276 222.946ZM488.606 226.445L479.774 241.325L484.933 244.387L493.765 229.507L488.606 226.445ZM482.353 239.856H474.673V245.856H482.353V239.856ZM497.756 244.098L507.452 222.786L501.991 220.302L492.295 241.614L497.756 244.098ZM501.756 222L502.908 229.488L508.838 228.576L507.686 221.088L501.756 222ZM505.873 226.032C504.502 226.032 503.462 225.605 502.571 224.752L498.424 229.088C500.476 231.051 503.02 232.032 505.873 232.032V226.032ZM502.619 224.799C501.828 224.008 501.385 223.006 501.385 221.544H495.385C495.385 224.434 496.35 227.016 498.376 229.041L502.619 224.799ZM501.385 221.544C501.385 219.79 501.934 218.607 502.916 217.7L498.847 213.292C496.501 215.457 495.385 218.306 495.385 221.544H501.385ZM502.92 217.697C504.124 216.582 505.391 216.096 506.833 216.096V210.096C503.796 210.096 501.094 211.21 498.843 213.295L502.92 217.697ZM506.833 216.096C508.203 216.096 509.121 216.518 509.847 217.279L514.187 213.137C512.226 211.082 509.688 210.096 506.833 210.096V216.096ZM509.946 217.378C510.67 218.069 511.129 219.029 511.129 220.584H517.129C517.129 217.659 516.181 215.035 514.089 213.038L509.946 217.378ZM511.129 220.584C511.129 221.336 510.985 222.068 510.683 222.802L516.231 225.086C516.825 223.644 517.129 222.136 517.129 220.584H511.129ZM510.628 222.946C510.325 223.806 509.775 224.983 508.92 226.51L514.155 229.442C515.092 227.769 515.822 226.258 516.286 224.942L510.628 222.946ZM508.958 226.445L500.126 241.325L505.285 244.387L514.117 229.507L508.958 226.445ZM502.705 239.856H495.025V245.856H502.705V239.856Z" fill="#2F528E"/>
<path d="M474.673 242.856L471.943 241.614L470.013 245.856H474.673V242.856ZM484.369 221.544L487.334 221.088L485.805 211.145L481.639 220.302L484.369 221.544ZM485.521 229.032V232.032H489.018L488.486 228.576L485.521 229.032ZM480.145 226.92L478.024 229.041L478.048 229.065L478.072 229.088L480.145 226.92ZM480.529 215.496L482.564 217.7L482.568 217.697L480.529 215.496ZM491.665 215.208L489.495 217.279L489.543 217.33L489.594 217.378L491.665 215.208ZM493.105 223.944L490.331 222.802L490.302 222.873L490.276 222.946L493.105 223.944ZM491.185 227.976L493.765 229.507L493.784 229.475L493.803 229.442L491.185 227.976ZM482.353 242.856V245.856H484.061L484.933 244.387L482.353 242.856ZM495.025 242.856L492.295 241.614L490.365 245.856H495.025V242.856ZM504.721 221.544L507.686 221.088L506.157 211.145L501.991 220.302L504.721 221.544ZM505.873 229.032V232.032H509.37L508.838 228.576L505.873 229.032ZM500.497 226.92L498.376 229.041L498.4 229.065L498.424 229.088L500.497 226.92ZM500.881 215.496L502.916 217.7L502.92 217.697L500.881 215.496ZM512.017 215.208L509.847 217.279L509.895 217.33L509.946 217.378L512.017 215.208ZM513.457 223.944L510.683 222.802L510.654 222.873L510.628 222.946L513.457 223.944ZM511.537 227.976L514.117 229.507L514.136 229.475L514.155 229.442L511.537 227.976ZM502.705 242.856V245.856H504.413L505.285 244.387L502.705 242.856ZM477.404 244.098L487.1 222.786L481.639 220.302L471.943 241.614L477.404 244.098ZM481.404 222L482.556 229.488L488.486 228.576L487.334 221.088L481.404 222ZM485.521 226.032C484.15 226.032 483.11 225.605 482.219 224.752L478.072 229.088C480.124 231.051 482.668 232.032 485.521 232.032V226.032ZM482.267 224.799C481.476 224.008 481.033 223.006 481.033 221.544H475.033C475.033 224.434 475.998 227.016 478.024 229.041L482.267 224.799ZM481.033 221.544C481.033 219.79 481.582 218.607 482.564 217.7L478.495 213.292C476.149 215.457 475.033 218.306 475.033 221.544H481.033ZM482.568 217.697C483.772 216.582 485.039 216.096 486.481 216.096V210.096C483.444 210.096 480.742 211.21 478.491 213.295L482.568 217.697ZM486.481 216.096C487.851 216.096 488.769 216.518 489.495 217.279L493.835 213.137C491.874 211.082 489.336 210.096 486.481 210.096V216.096ZM489.594 217.378C490.318 218.069 490.777 219.029 490.777 220.584H496.777C496.777 217.659 495.829 215.035 493.737 213.038L489.594 217.378ZM490.777 220.584C490.777 221.336 490.633 222.068 490.331 222.802L495.879 225.086C496.473 223.644 496.777 222.136 496.777 220.584H490.777ZM490.276 222.946C489.973 223.806 489.423 224.983 488.568 226.51L493.803 229.442C494.74 227.769 495.47 226.258 495.934 224.942L490.276 222.946ZM488.606 226.445L479.774 241.325L484.933 244.387L493.765 229.507L488.606 226.445ZM482.353 239.856H474.673V245.856H482.353V239.856ZM497.756 244.098L507.452 222.786L501.991 220.302L492.295 241.614L497.756 244.098ZM501.756 222L502.908 229.488L508.838 228.576L507.686 221.088L501.756 222ZM505.873 226.032C504.502 226.032 503.462 225.605 502.571 224.752L498.424 229.088C500.476 231.051 503.02 232.032 505.873 232.032V226.032ZM502.619 224.799C501.828 224.008 501.385 223.006 501.385 221.544H495.385C495.385 224.434 496.35 227.016 498.376 229.041L502.619 224.799ZM501.385 221.544C501.385 219.79 501.934 218.607 502.916 217.7L498.847 213.292C496.501 215.457 495.385 218.306 495.385 221.544H501.385ZM502.92 217.697C504.124 216.582 505.391 216.096 506.833 216.096V210.096C503.796 210.096 501.094 211.21 498.843 213.295L502.92 217.697ZM506.833 216.096C508.203 216.096 509.121 216.518 509.847 217.279L514.187 213.137C512.226 211.082 509.688 210.096 506.833 210.096V216.096ZM509.946 217.378C510.67 218.069 511.129 219.029 511.129 220.584H517.129C517.129 217.659 516.181 215.035 514.089 213.038L509.946 217.378ZM511.129 220.584C511.129 221.336 510.985 222.068 510.683 222.802L516.231 225.086C516.825 223.644 517.129 222.136 517.129 220.584H511.129ZM510.628 222.946C510.325 223.806 509.775 224.983 508.92 226.51L514.155 229.442C515.092 227.769 515.822 226.258 516.286 224.942L510.628 222.946ZM508.958 226.445L500.126 241.325L505.285 244.387L514.117 229.507L508.958 226.445ZM502.705 239.856H495.025V245.856H502.705V239.856Z" fill="#2F528E"/>
</svg>
