<svg width="416" height="319" viewBox="0 0 416 319" fill="none" xmlns="http://www.w3.org/2000/svg">
<path d="M335.117 5.0757e-05C324.469 -0.0118653 313.923 2.07445 304.082 6.13972C294.241 10.205 285.298 16.1695 277.764 23.6922C270.231 31.2149 264.254 40.1483 260.177 49.9815C256.099 59.8148 254 70.355 254 80.9997C254 91.6444 256.099 102.185 260.176 112.018C264.254 121.851 270.23 130.785 277.764 138.307C285.297 145.83 294.24 151.795 304.081 155.86C313.922 159.925 324.468 162.012 335.116 162H335.117C356.581 161.962 377.154 153.411 392.319 138.225C407.483 123.039 416 102.458 416 81C416 59.5422 407.483 38.9612 392.319 23.7749C377.154 8.58855 356.581 0.0379146 335.117 5.0757e-05Z" fill="#0AB1EE"/>
<path d="M371.058 239C365.799 238.994 360.591 240.024 355.732 242.032C350.872 244.04 346.456 246.985 342.735 250.7C339.015 254.415 336.064 258.826 334.05 263.682C332.036 268.538 331 273.743 331 279C331 284.256 332.036 289.462 334.05 294.318C336.064 299.173 339.015 303.585 342.735 307.3C346.455 311.015 350.872 313.96 355.731 315.968C360.591 317.976 365.799 319.006 371.057 319H371.058C381.657 318.981 391.817 314.759 399.305 307.259C406.794 299.76 411 289.596 411 279C411 268.404 406.794 258.24 399.305 250.741C391.817 243.241 381.657 239.019 371.058 239Z" fill="#B9D4FF"/>
<path d="M52.5757 57C45.6741 56.9923 38.8388 58.3445 32.4603 60.9794C26.0819 63.6143 20.2856 67.4802 15.4027 72.3561C10.5198 77.2319 6.64621 83.022 4.0033 89.3954C1.36039 95.7688 2.36389e-05 102.6 3.08137e-10 109.5C-2.36382e-05 116.399 1.36029 123.231 4.00315 129.604C6.64602 135.978 10.5196 141.768 15.4025 146.644C20.2853 151.52 26.0816 155.385 32.46 158.02C38.8384 160.655 45.6738 162.008 52.5753 162H52.5757C66.488 161.975 79.8221 156.433 89.6509 146.59C99.4797 136.747 105 123.408 105 109.5C105 95.5922 99.4797 82.2526 89.6509 72.4096C79.8221 62.5666 66.488 57.0246 52.5757 57Z" fill="#B9D4FF"/>
<path d="M178.088 187C170.069 186.991 162.127 188.562 154.716 191.624C147.305 194.685 140.57 199.177 134.896 204.842C129.223 210.508 124.722 217.235 121.651 224.64C118.581 232.046 117 239.983 117 248C117 256.016 118.581 263.954 121.651 271.359C124.722 278.765 129.223 285.492 134.896 291.157C140.57 296.823 147.304 301.315 154.715 304.376C162.127 307.438 170.069 309.009 178.088 309H178.088C194.253 308.971 209.746 302.532 221.166 291.095C232.586 279.659 239 264.16 239 248C239 231.84 232.586 216.341 221.166 204.905C209.746 193.468 194.253 187.029 178.088 187Z" fill="#4963BA"/>
<path d="M327.482 115C325.329 115.004 323.233 114.314 321.51 113.037L321.403 112.958L298.908 95.9385C296.806 94.3422 295.431 91.986 295.086 89.3877C294.74 86.7895 295.451 84.1617 297.063 82.0818C298.675 80.002 301.056 78.6403 303.683 78.296C306.31 77.9516 308.968 78.6529 311.072 80.2455L325.643 91.2961L360.074 46.87C360.872 45.84 361.868 44.9756 363.004 44.3262C364.14 43.6768 365.394 43.2551 366.695 43.0851C367.996 42.9152 369.318 43.0002 370.586 43.3356C371.853 43.671 373.042 44.25 374.083 45.0396L374.083 45.0398L374.086 45.0419L373.873 45.3353L374.092 45.0419C376.193 46.6389 377.568 48.995 377.914 51.5932C378.261 54.1914 377.551 56.8195 375.94 58.9007L335.442 111.132C334.505 112.336 333.3 113.31 331.922 113.978C330.543 114.647 329.027 114.992 327.491 114.988L327.482 115Z" fill="white"/>
<path d="M367.045 296C365.982 296.002 364.946 295.657 364.095 295.018L364.042 294.979L352.93 286.469C351.892 285.671 351.213 284.493 351.042 283.194C350.871 281.895 351.223 280.581 352.019 279.541C352.816 278.501 353.992 277.82 355.289 277.648C356.587 277.476 357.9 277.826 358.939 278.623L366.137 284.148L383.145 261.935C383.539 261.42 384.031 260.988 384.592 260.663C385.153 260.338 385.773 260.128 386.416 260.043C387.058 259.958 387.711 260 388.338 260.168C388.964 260.335 389.551 260.625 390.065 261.02L390.065 261.02L390.067 261.021L389.961 261.168L390.07 261.021C391.107 261.819 391.786 262.998 391.958 264.297C392.129 265.596 391.778 266.91 390.983 267.95L370.977 294.066C370.515 294.668 369.92 295.155 369.238 295.489C368.557 295.823 367.808 295.996 367.05 295.994L367.045 296Z" fill="white"/>
<path d="M47.133 132C45.732 132.002 44.3682 131.552 43.2473 130.718L43.1777 130.667L28.5423 119.557C27.1751 118.515 26.2807 116.977 26.0557 115.281C25.8307 113.585 26.2935 111.869 27.3423 110.512C28.3912 109.154 29.9403 108.265 31.6493 108.04C33.3583 107.816 35.0874 108.273 36.4564 109.313L45.9361 116.527L68.337 87.5263C68.8564 86.8539 69.5042 86.2897 70.2434 85.8657C70.9825 85.4418 71.7986 85.1665 72.645 85.0556C73.4914 84.9446 74.3516 85.0002 75.1763 85.2191C76.0011 85.438 76.7743 85.816 77.4518 86.3314L77.4519 86.3315L77.4538 86.3329L77.3147 86.5244L77.4575 86.3329C78.8243 87.3754 79.7187 88.9134 79.9441 90.6095C80.1695 92.3055 79.7077 94.0211 78.6599 95.3796L52.3117 129.475C51.7021 130.261 50.9184 130.897 50.0213 131.333C49.1241 131.77 48.1378 131.995 47.1386 131.992L47.133 132Z" fill="white"/>
<path d="M171.655 274C170.021 274.003 168.43 273.486 167.122 272.528L167.041 272.468L149.966 259.704C148.371 258.507 147.327 256.74 147.065 254.791C146.802 252.842 147.342 250.871 148.566 249.311C149.79 247.752 151.597 246.73 153.591 246.472C155.585 246.214 157.602 246.74 159.199 247.934L170.259 256.222L196.393 222.903C196.999 222.13 197.755 221.482 198.617 220.995C199.48 220.508 200.432 220.191 201.419 220.064C202.407 219.936 203.41 220 204.372 220.252C205.335 220.503 206.237 220.938 207.027 221.53L207.027 221.53L207.029 221.531L206.867 221.751L207.034 221.531C208.628 222.729 209.672 224.496 209.935 226.445C210.198 228.394 209.659 230.365 208.437 231.926L177.697 271.099C176.986 272.002 176.071 272.732 175.025 273.234C173.978 273.735 172.827 273.994 171.662 273.991L171.655 274Z" fill="white"/>
</svg>
