<svg width="1305" height="558" viewBox="0 0 1305 558" fill="none" xmlns="http://www.w3.org/2000/svg">
<path d="M40.3563 302V201.7H0.916328V183H101.896V201.7H62.4563V302H40.3563ZM138.882 232.47H198.042V250.66H138.882V232.47ZM140.582 283.47H207.732V302H118.482V183H205.352V201.53H140.582V283.47ZM269.259 303.7C259.965 303.7 251.069 302.397 242.569 299.79C234.069 297.07 227.325 293.613 222.339 289.42L229.989 272.25C234.749 275.99 240.642 279.107 247.669 281.6C254.695 284.093 261.892 285.34 269.259 285.34C275.492 285.34 280.535 284.66 284.389 283.3C288.242 281.94 291.075 280.127 292.889 277.86C294.702 275.48 295.609 272.817 295.609 269.87C295.609 266.243 294.305 263.353 291.699 261.2C289.092 258.933 285.692 257.177 281.499 255.93C277.419 254.57 272.829 253.323 267.729 252.19C262.742 251.057 257.699 249.753 252.599 248.28C247.612 246.693 243.022 244.71 238.829 242.33C234.749 239.837 231.405 236.55 228.799 232.47C226.192 228.39 224.889 223.177 224.889 216.83C224.889 210.37 226.589 204.477 229.989 199.15C233.502 193.71 238.772 189.403 245.799 186.23C252.939 182.943 261.949 181.3 272.829 181.3C279.969 181.3 287.052 182.207 294.079 184.02C301.105 185.833 307.225 188.44 312.439 191.84L305.469 209.01C300.142 205.837 294.645 203.513 288.979 202.04C283.312 200.453 277.872 199.66 272.659 199.66C266.539 199.66 261.552 200.397 257.699 201.87C253.959 203.343 251.182 205.27 249.369 207.65C247.669 210.03 246.819 212.75 246.819 215.81C246.819 219.437 248.065 222.383 250.559 224.65C253.165 226.803 256.509 228.503 260.589 229.75C264.782 230.997 269.429 232.243 274.529 233.49C279.629 234.623 284.672 235.927 289.659 237.4C294.759 238.873 299.349 240.8 303.429 243.18C307.622 245.56 310.965 248.79 313.459 252.87C316.065 256.95 317.369 262.107 317.369 268.34C317.369 274.687 315.612 280.58 312.099 286.02C308.699 291.347 303.429 295.653 296.289 298.94C289.149 302.113 280.139 303.7 269.259 303.7ZM361.763 302V201.7H322.323V183H423.303V201.7H383.863V302H361.763ZM439.888 302V183H461.988V302H439.888ZM494.175 302V183H512.365L564.385 269.87H554.865L606.035 183H624.225L624.395 302H603.485L603.315 215.81H607.735L564.215 288.4H554.355L510.155 215.81H515.255V302H494.175ZM712.299 303.7C703.005 303.7 694.449 302.17 686.629 299.11C678.809 296.05 672.009 291.8 666.229 286.36C660.449 280.807 655.972 274.347 652.799 266.98C649.625 259.5 648.039 251.34 648.039 242.5C648.039 233.66 649.625 225.557 652.799 218.19C655.972 210.71 660.449 204.25 666.229 198.81C672.009 193.257 678.809 188.95 686.629 185.89C694.449 182.83 702.949 181.3 712.129 181.3C721.422 181.3 729.922 182.83 737.629 185.89C745.449 188.95 752.249 193.257 758.029 198.81C763.809 204.25 768.285 210.71 771.459 218.19C774.632 225.557 776.219 233.66 776.219 242.5C776.219 251.34 774.632 259.5 771.459 266.98C768.285 274.46 763.809 280.92 758.029 286.36C752.249 291.8 745.449 296.05 737.629 299.11C729.922 302.17 721.479 303.7 712.299 303.7ZM712.129 284.32C718.135 284.32 723.689 283.3 728.789 281.26C733.889 279.22 738.309 276.33 742.049 272.59C745.789 268.737 748.679 264.317 750.719 259.33C752.872 254.23 753.949 248.62 753.949 242.5C753.949 236.38 752.872 230.827 750.719 225.84C748.679 220.74 745.789 216.32 742.049 212.58C738.309 208.727 733.889 205.78 728.789 203.74C723.689 201.7 718.135 200.68 712.129 200.68C706.122 200.68 700.569 201.7 695.469 203.74C690.482 205.78 686.062 208.727 682.209 212.58C678.469 216.32 675.522 220.74 673.369 225.84C671.329 230.827 670.309 236.38 670.309 242.5C670.309 248.507 671.329 254.06 673.369 259.16C675.522 264.26 678.469 268.737 682.209 272.59C685.949 276.33 690.369 279.22 695.469 281.26C700.569 283.3 706.122 284.32 712.129 284.32ZM799.644 302V183H817.834L892.464 274.63H883.454V183H905.384V302H887.194L812.564 210.37H821.574V302H799.644ZM937.271 302V183H959.371V302H937.271ZM974.728 302L1028.28 183H1050.04L1103.76 302H1080.64L1034.57 194.73H1043.41L997.508 302H974.728ZM999.378 274.46L1005.33 257.12H1069.59L1075.54 274.46H999.378ZM1118.89 302V183H1140.99V283.3H1203.21V302H1118.89ZM1256.72 303.7C1247.43 303.7 1238.53 302.397 1230.03 299.79C1221.53 297.07 1214.79 293.613 1209.8 289.42L1217.45 272.25C1222.21 275.99 1228.1 279.107 1235.13 281.6C1242.16 284.093 1249.35 285.34 1256.72 285.34C1262.95 285.34 1268 284.66 1271.85 283.3C1275.7 281.94 1278.54 280.127 1280.35 277.86C1282.16 275.48 1283.07 272.817 1283.07 269.87C1283.07 266.243 1281.77 263.353 1279.16 261.2C1276.55 258.933 1273.15 257.177 1268.96 255.93C1264.88 254.57 1260.29 253.323 1255.19 252.19C1250.2 251.057 1245.16 249.753 1240.06 248.28C1235.07 246.693 1230.48 244.71 1226.29 242.33C1222.21 239.837 1218.87 236.55 1216.26 232.47C1213.65 228.39 1212.35 223.177 1212.35 216.83C1212.35 210.37 1214.05 204.477 1217.45 199.15C1220.96 193.71 1226.23 189.403 1233.26 186.23C1240.4 182.943 1249.41 181.3 1260.29 181.3C1267.43 181.3 1274.51 182.207 1281.54 184.02C1288.57 185.833 1294.69 188.44 1299.9 191.84L1292.93 209.01C1287.6 205.837 1282.11 203.513 1276.44 202.04C1270.77 200.453 1265.33 199.66 1260.12 199.66C1254 199.66 1249.01 200.397 1245.16 201.87C1241.42 203.343 1238.64 205.27 1236.83 207.65C1235.13 210.03 1234.28 212.75 1234.28 215.81C1234.28 219.437 1235.53 222.383 1238.02 224.65C1240.63 226.803 1243.97 228.503 1248.05 229.75C1252.24 230.997 1256.89 232.243 1261.99 233.49C1267.09 234.623 1272.13 235.927 1277.12 237.4C1282.22 238.873 1286.81 240.8 1290.89 243.18C1295.08 245.56 1298.43 248.79 1300.92 252.87C1303.53 256.95 1304.83 262.107 1304.83 268.34C1304.83 274.687 1303.07 280.58 1299.56 286.02C1296.16 291.347 1290.89 295.653 1283.75 298.94C1276.61 302.113 1267.6 303.7 1256.72 303.7Z" fill="#D2D2D2" fill-opacity="0.71"/>
<circle cx="271.5" cy="106.5" r="67.5" fill="#D9D9D9"/>
<circle cx="302.5" cy="490.5" r="67.5" fill="#FD959B"/>
<circle cx="202" cy="322" r="101" fill="#B88CCC"/>
<circle cx="1159" cy="136" r="101" fill="#A3D990"/>
<circle cx="885" cy="174" r="128" fill="#6DA7EC"/>
<circle cx="1068.5" cy="338.5" r="90.5" fill="#D9D9D9"/>
<circle cx="423" cy="237" r="101" fill="#FDD28C"/>
<circle cx="638" cy="61" r="61" fill="#D9D9D9"/>
<circle cx="664" cy="256" r="35" fill="#D9D9D9"/>
<circle cx="1225" cy="322" r="35" fill="#D9D9D9"/>
<circle cx="423" cy="405" r="35" fill="#D9D9D9"/>
</svg>
