<svg width="26" height="25" viewBox="0 0 26 25" fill="none" xmlns="http://www.w3.org/2000/svg">
<path d="M22.0353 14.6172C21.9324 14.708 21.8703 14.8364 21.8637 14.9734C21.803 16.2391 21.699 17.5033 21.5516 18.7637C21.3589 20.4108 20.0271 21.7228 18.3644 21.9086C14.1696 22.3775 9.83015 22.3775 5.63534 21.9086C3.9727 21.7228 2.64084 20.4108 2.4482 18.7637C1.94695 14.4781 1.94695 10.1486 2.4482 5.86292C2.64084 4.21582 3.9727 2.9038 5.63534 2.71798C8.40099 2.40888 11.2329 2.30371 14.0417 2.4022C14.2445 2.40931 14.4172 2.25498 14.4313 2.05252L14.4927 1.17375C14.4965 1.12201 14.5016 1.07083 14.5079 1.02022C14.5384 0.777227 14.37 0.537629 14.1252 0.528959C11.2183 0.425978 8.29079 0.534519 5.42707 0.854582C2.912 1.13568 0.881586 3.11694 0.585895 5.6451C0.0677225 10.0755 0.0677225 14.5511 0.585895 18.9815C0.881586 21.5097 2.912 23.4909 5.42707 23.772C9.76029 24.2563 14.2395 24.2563 18.5727 23.772C21.0878 23.4909 23.1182 21.5097 23.4139 18.9815C23.6251 17.1755 23.7502 15.362 23.7892 13.547C23.7941 13.3192 23.5147 13.2057 23.3548 13.368C22.9296 13.7996 22.4895 14.2163 22.0353 14.6172Z" fill="white"/>
<path d="M6.83389 16.4381C6.55735 16.3619 6.36817 16.1072 6.37506 15.8205L6.44911 12.7407C6.55514 8.3307 10.1605 4.81094 14.5718 4.81094L16.1435 4.81094C16.1764 4.03128 16.2212 3.25199 16.278 2.47336L16.3628 1.31007C16.4145 0.600133 17.2061 0.203276 17.8059 0.586546C20.3946 2.24066 22.6451 4.37203 24.4374 6.86704L25.0075 7.66071C25.164 7.87861 25.164 8.17209 25.0075 8.38999L24.4374 9.18366C22.6451 11.6787 20.3946 13.81 17.8059 15.4642C17.312 15.7798 16.6862 15.5663 16.4524 15.0847C16.4033 14.9824 16.3718 14.8644 16.3628 14.7406L16.278 13.5773C16.2103 12.6487 16.1596 11.7192 16.1259 10.7892L15.6833 10.7226C12.863 10.2981 10.0734 11.6591 8.67212 14.1432L7.54424 16.1426C7.49052 16.2378 7.41429 16.3147 7.32573 16.3689C7.18204 16.4566 7.00484 16.4851 6.83389 16.4381Z" fill="white"/>
</svg>
