<svg width="1160" height="900" viewBox="0 0 1160 900" fill="none" xmlns="http://www.w3.org/2000/svg">
<rect x="520" width="120" height="120" fill="#2F528E"/>
<rect x="910" y="520" width="120" height="120" fill="#D9D9D9"/>
<rect x="260" y="520" width="120" height="120" fill="#D9D9D9"/>
<rect x="910" y="260" width="120" height="120" fill="#D9D9D9"/>
<rect x="260" y="260" width="120" height="120" fill="#D9D9D9"/>
<rect x="910" y="390" width="120" height="120" fill="#D9D9D9"/>
<rect x="260" y="390" width="120" height="120" fill="#D9D9D9"/>
<rect x="910" y="130" width="120" height="120" fill="#D9D9D9"/>
<rect x="260" y="130" width="120" height="120" fill="#D9D9D9"/>
<rect x="260" width="120" height="120" fill="#D9D9D9"/>
<rect x="130" y="130" width="120" height="120" fill="#D9D9D9"/>
<rect x="390" y="130" width="120" height="120" fill="#D9D9D9"/>
<rect x="130" y="520" width="120" height="120" fill="#D9D9D9"/>
<rect y="520" width="120" height="120" fill="#D9D9D9"/>
<rect x="130" y="650" width="120" height="120" fill="#D9D9D9"/>
<rect x="910" y="650" width="120" height="120" fill="#D9D9D9"/>
<rect x="1040" y="520" width="120" height="120" fill="#D9D9D9"/>
<rect x="1040" y="130" width="120" height="120" fill="#D9D9D9"/>
<rect x="780" y="130" width="120" height="120" fill="#D9D9D9"/>
<rect x="650" y="130" width="120" height="120" fill="#D9D9D9"/>
<rect x="520" y="130" width="120" height="120" fill="#2F528E"/>
<rect x="520" y="260" width="120" height="120" fill="#2F528E"/>
<rect x="520" y="390" width="120" height="120" fill="#2F528E"/>
<rect x="520" y="520" width="120" height="120" fill="#4963BA"/>
<rect x="650" y="520" width="120" height="120" fill="#0AB1EE"/>
<rect x="780" y="520" width="120" height="120" fill="#0AB1EE"/>
<rect x="390" y="520" width="120" height="120" fill="#0AB1EE"/>
<rect x="650" y="780" width="120" height="120" fill="#0AB1EE"/>
<rect x="780" y="780" width="120" height="120" fill="#0AB1EE"/>
<rect x="910" y="780" width="120" height="120" fill="#0AB1EE"/>
<rect x="1040" y="780" width="120" height="120" fill="#0AB1EE"/>
<rect x="520" y="650" width="120" height="120" fill="#2F528E"/>
<rect x="520" y="780" width="120" height="120" fill="#4963BA"/>
<path d="M570.25 78V43H575.25V73.65H594.2V78H570.25Z" fill="white"/>
<path d="M572.8 188.1H590.8V192.35H572.8V188.1ZM573.25 203.65H593.65V208H568.25V173H592.95V177.35H573.25V203.65Z" fill="white"/>
<path d="M561.95 338L577.8 303H582.75L598.65 338H593.4L579.25 305.8H581.25L567.1 338H561.95ZM568.7 329.25L570.05 325.25H589.75L591.2 329.25H568.7Z" fill="white"/>
<path d="M564.25 468V433H579C582.733 433 586.017 433.733 588.85 435.2C591.717 436.667 593.933 438.717 595.5 441.35C597.1 443.983 597.9 447.033 597.9 450.5C597.9 453.967 597.1 457.017 595.5 459.65C593.933 462.283 591.717 464.333 588.85 465.8C586.017 467.267 582.733 468 579 468H564.25ZM569.25 463.65H578.7C581.6 463.65 584.1 463.1 586.2 462C588.333 460.9 589.983 459.367 591.15 457.4C592.317 455.4 592.9 453.1 592.9 450.5C592.9 447.867 592.317 445.567 591.15 443.6C589.983 441.633 588.333 440.1 586.2 439C584.1 437.9 581.6 437.35 578.7 437.35H569.25V463.65Z" fill="white"/>
<path d="M577.25 598V563H582.25V598H577.25Z" fill="white"/>
<path d="M707.2 598V567.35H695.2V563H724.15V567.35H712.15V598H707.2Z" fill="white"/>
<path d="M850.35 563H855.35V598H850.35V563ZM830.25 598H825.25V563H830.25V598ZM850.8 582.4H829.75V578.05H850.8V582.4Z" fill="white"/>
<path d="M435.3 598L423.6 563H428.75L439.5 595.3H436.9L448.05 563H452.65L463.55 595.3H461.05L471.95 563H476.7L465 598H459.75L449.55 568.05H450.9L440.65 598H435.3Z" fill="white"/>
<path d="M697.25 858V823H710.9C713.967 823 716.583 823.483 718.75 824.45C720.917 825.417 722.583 826.817 723.75 828.65C724.917 830.483 725.5 832.667 725.5 835.2C725.5 837.733 724.917 839.917 723.75 841.75C722.583 843.55 720.917 844.933 718.75 845.9C716.583 846.867 713.967 847.35 710.9 847.35H700L702.25 845.05V858H697.25ZM720.65 858L711.75 845.3H717.1L726.1 858H720.65ZM702.25 845.55L700 843.1H710.75C713.95 843.1 716.367 842.417 718 841.05C719.667 839.65 720.5 837.7 720.5 835.2C720.5 832.7 719.667 830.767 718 829.4C716.367 828.033 713.95 827.35 710.75 827.35H700L702.25 824.85V845.55Z" fill="white"/>
<path d="M821.95 858L837.8 823H842.75L858.65 858H853.4L839.25 825.8H841.25L827.1 858H821.95ZM828.7 849.25L830.05 845.25H849.75L851.2 849.25H828.7Z" fill="white"/>
<path d="M972.9 858.4C970.233 858.4 967.767 857.967 965.5 857.1C963.267 856.2 961.317 854.95 959.65 853.35C958.017 851.717 956.733 849.817 955.8 847.65C954.867 845.483 954.4 843.1 954.4 840.5C954.4 837.9 954.867 835.517 955.8 833.35C956.733 831.183 958.033 829.3 959.7 827.7C961.367 826.067 963.317 824.817 965.55 823.95C967.817 823.05 970.283 822.6 972.95 822.6C975.65 822.6 978.133 823.067 980.4 824C982.7 824.9 984.65 826.25 986.25 828.05L983 831.2C981.667 829.8 980.167 828.767 978.5 828.1C976.833 827.4 975.05 827.05 973.15 827.05C971.183 827.05 969.35 827.383 967.65 828.05C965.983 828.717 964.533 829.65 963.3 830.85C962.067 832.05 961.1 833.483 960.4 835.15C959.733 836.783 959.4 838.567 959.4 840.5C959.4 842.433 959.733 844.233 960.4 845.9C961.1 847.533 962.067 848.95 963.3 850.15C964.533 851.35 965.983 852.283 967.65 852.95C969.35 853.617 971.183 853.95 973.15 853.95C975.05 853.95 976.833 853.617 978.5 852.95C980.167 852.25 981.667 851.183 983 849.75L986.25 852.9C984.65 854.7 982.7 856.067 980.4 857C978.133 857.933 975.633 858.4 972.9 858.4Z" fill="white"/>
<path d="M1092.8 838.1H1110.8V842.35H1092.8V838.1ZM1093.25 853.65H1113.65V858H1088.25V823H1112.95V827.35H1093.25V853.65Z" fill="white"/>
<path d="M565.25 728V693H569.35L592.5 721.75H590.35V693H595.35V728H591.25L568.1 699.25H570.25V728H565.25Z" fill="white"/>
<path d="M582.05 858.4C579.35 858.4 576.867 857.967 574.6 857.1C572.333 856.2 570.367 854.95 568.7 853.35C567.033 851.717 565.733 849.817 564.8 847.65C563.867 845.483 563.4 843.1 563.4 840.5C563.4 837.9 563.867 835.517 564.8 833.35C565.733 831.183 567.033 829.3 568.7 827.7C570.4 826.067 572.383 824.817 574.65 823.95C576.917 823.05 579.417 822.6 582.15 822.6C584.917 822.6 587.45 823.05 589.75 823.95C592.05 824.85 594 826.2 595.6 828L592.5 831.1C591.067 829.7 589.5 828.683 587.8 828.05C586.133 827.383 584.317 827.05 582.35 827.05C580.35 827.05 578.483 827.383 576.75 828.05C575.05 828.717 573.567 829.65 572.3 830.85C571.067 832.05 570.1 833.483 569.4 835.15C568.733 836.783 568.4 838.567 568.4 840.5C568.4 842.4 568.733 844.183 569.4 845.85C570.1 847.483 571.067 848.917 572.3 850.15C573.567 851.35 575.05 852.283 576.75 852.95C578.45 853.617 580.3 853.95 582.3 853.95C584.167 853.95 585.95 853.667 587.65 853.1C589.383 852.5 590.983 851.517 592.45 850.15L595.3 853.95C593.567 855.417 591.533 856.533 589.2 857.3C586.9 858.033 584.517 858.4 582.05 858.4ZM590.5 853.3V840.3H595.3V853.95L590.5 853.3Z" fill="white"/>
</svg>
