<svg width="42" height="52" viewBox="0 0 42 52" fill="none" xmlns="http://www.w3.org/2000/svg">
<path fill-rule="evenodd" clip-rule="evenodd" d="M26.9997 0.666666C26.9997 0.298476 26.7012 0 26.333 0H7.66634C3.61625 0 0.333008 3.28325 0.333008 7.33334V44.6667C0.333008 48.7168 3.61625 52 7.66634 52H34.333C38.3831 52 41.6663 48.7168 41.6663 44.6667V18.3922C41.6663 18.024 41.3679 17.7255 40.9997 17.7255H28.9997C27.8951 17.7255 26.9997 16.8301 26.9997 15.7255V0.666666ZM28.9997 26.6667C30.1042 26.6667 30.9997 27.5621 30.9997 28.6667C30.9997 29.7712 30.1042 30.6667 28.9997 30.6667H12.9997C11.8951 30.6667 10.9997 29.7712 10.9997 28.6667C10.9997 27.5621 11.8951 26.6667 12.9997 26.6667H28.9997ZM28.9997 37.3333C30.1042 37.3333 30.9997 38.2288 30.9997 39.3333C30.9997 40.4379 30.1042 41.3333 28.9997 41.3333H12.9997C11.8951 41.3333 10.9997 40.4379 10.9997 39.3333C10.9997 38.2288 11.8951 37.3333 12.9997 37.3333H28.9997Z" fill="#374E91"/>
<path d="M30.9997 1.53103C30.9997 1.03904 31.5134 0.726655 31.8962 1.0357C32.2186 1.296 32.5085 1.60095 32.7557 1.94546L40.7908 13.1399C40.9738 13.3947 40.7756 13.7255 40.4619 13.7255H31.6663C31.2981 13.7255 30.9997 13.427 30.9997 13.0588V1.53103Z" fill="#374E91"/>
</svg>
